<?xml version="1.0" encoding="utf-8" standalone="no"?>
<!DOCTYPE svg PUBLIC "-//W3C//DTD SVG 1.1//EN"
  "http://www.w3.org/Graphics/SVG/1.1/DTD/svg11.dtd">
<svg xmlns:xlink="http://www.w3.org/1999/xlink" width="460.8pt" height="345.6pt" viewBox="0 0 460.8 345.6" xmlns="http://www.w3.org/2000/svg" version="1.1">
 <metadata>
  <rdf:RDF xmlns:dc="http://purl.org/dc/elements/1.1/" xmlns:cc="http://creativecommons.org/ns#" xmlns:rdf="http://www.w3.org/1999/02/22-rdf-syntax-ns#">
   <cc:Work>
    <dc:type rdf:resource="http://purl.org/dc/dcmitype/StillImage"/>
    <dc:date>2024-04-30T19:22:56.589064</dc:date>
    <dc:format>image/svg+xml</dc:format>
    <dc:creator>
     <cc:Agent>
      <dc:title>Matplotlib v3.8.4, https://matplotlib.org/</dc:title>
     </cc:Agent>
    </dc:creator>
   </cc:Work>
  </rdf:RDF>
 </metadata>
 <defs>
  <style type="text/css">*{stroke-linejoin: round; stroke-linecap: butt}</style>
 </defs>
 <g id="figure_1">
  <g id="patch_1">
   <path d="M 0 345.6 
L 460.8 345.6 
L 460.8 0 
L 0 0 
z
" style="fill: #ffffff"/>
  </g>
  <g id="axes_1">
   <g id="patch_2">
    <path d="M 33.64 317.72 
L 450 317.72 
L 450 41.4216 
L 33.64 41.4216 
z
" style="fill: #e5e5e5"/>
   </g>
   <g id="matplotlib.axis_1">
    <g id="xtick_1">
     <g id="line2d_1">
      <path d="M 61.577576 317.72 
L 61.577576 41.4216 
" clip-path="url(#p2d7a5a1ed0)" style="fill: none; stroke: #ffffff; stroke-width: 0.8; stroke-linecap: square"/>
     </g>
     <g id="line2d_2">
      <defs>
       <path id="m25cb6304b3" d="M 0 0 
L 0 3.5 
" style="stroke: #555555; stroke-width: 0.8"/>
      </defs>
      <g>
       <use xlink:href="#m25cb6304b3" x="61.577576" y="317.72" style="fill: #555555; stroke: #555555; stroke-width: 0.8"/>
      </g>
     </g>
     <g id="text_1">
      <!-- −2 -->
      <g style="fill: #555555" transform="translate(54.206482 332.318437) scale(0.1 -0.1)">
       <defs>
        <path id="DejaVuSans-2212" d="M 678 2272 
L 4684 2272 
L 4684 1741 
L 678 1741 
L 678 2272 
z
" transform="scale(0.015625)"/>
        <path id="DejaVuSans-32" d="M 1228 531 
L 3431 531 
L 3431 0 
L 469 0 
L 469 531 
Q 828 903 1448 1529 
Q 2069 2156 2228 2338 
Q 2531 2678 2651 2914 
Q 2772 3150 2772 3378 
Q 2772 3750 2511 3984 
Q 2250 4219 1831 4219 
Q 1534 4219 1204 4116 
Q 875 4013 500 3803 
L 500 4441 
Q 881 4594 1212 4672 
Q 1544 4750 1819 4750 
Q 2544 4750 2975 4387 
Q 3406 4025 3406 3419 
Q 3406 3131 3298 2873 
Q 3191 2616 2906 2266 
Q 2828 2175 2409 1742 
Q 1991 1309 1228 531 
z
" transform="scale(0.015625)"/>
       </defs>
       <use xlink:href="#DejaVuSans-2212"/>
       <use xlink:href="#DejaVuSans-32" x="83.789062"/>
      </g>
     </g>
    </g>
    <g id="xtick_2">
     <g id="line2d_3">
      <path d="M 121.658384 317.72 
L 121.658384 41.4216 
" clip-path="url(#p2d7a5a1ed0)" style="fill: none; stroke: #ffffff; stroke-width: 0.8; stroke-linecap: square"/>
     </g>
     <g id="line2d_4">
      <g>
       <use xlink:href="#m25cb6304b3" x="121.658384" y="317.72" style="fill: #555555; stroke: #555555; stroke-width: 0.8"/>
      </g>
     </g>
     <g id="text_2">
      <!-- −1 -->
      <g style="fill: #555555" transform="translate(114.28729 332.318437) scale(0.1 -0.1)">
       <defs>
        <path id="DejaVuSans-31" d="M 794 531 
L 1825 531 
L 1825 4091 
L 703 3866 
L 703 4441 
L 1819 4666 
L 2450 4666 
L 2450 531 
L 3481 531 
L 3481 0 
L 794 0 
L 794 531 
z
" transform="scale(0.015625)"/>
       </defs>
       <use xlink:href="#DejaVuSans-2212"/>
       <use xlink:href="#DejaVuSans-31" x="83.789062"/>
      </g>
     </g>
    </g>
    <g id="xtick_3">
     <g id="line2d_5">
      <path d="M 181.739192 317.72 
L 181.739192 41.4216 
" clip-path="url(#p2d7a5a1ed0)" style="fill: none; stroke: #ffffff; stroke-width: 0.8; stroke-linecap: square"/>
     </g>
     <g id="line2d_6">
      <g>
       <use xlink:href="#m25cb6304b3" x="181.739192" y="317.72" style="fill: #555555; stroke: #555555; stroke-width: 0.8"/>
      </g>
     </g>
     <g id="text_3">
      <!-- 0 -->
      <g style="fill: #555555" transform="translate(178.557942 332.318437) scale(0.1 -0.1)">
       <defs>
        <path id="DejaVuSans-30" d="M 2034 4250 
Q 1547 4250 1301 3770 
Q 1056 3291 1056 2328 
Q 1056 1369 1301 889 
Q 1547 409 2034 409 
Q 2525 409 2770 889 
Q 3016 1369 3016 2328 
Q 3016 3291 2770 3770 
Q 2525 4250 2034 4250 
z
M 2034 4750 
Q 2819 4750 3233 4129 
Q 3647 3509 3647 2328 
Q 3647 1150 3233 529 
Q 2819 -91 2034 -91 
Q 1250 -91 836 529 
Q 422 1150 422 2328 
Q 422 3509 836 4129 
Q 1250 4750 2034 4750 
z
" transform="scale(0.015625)"/>
       </defs>
       <use xlink:href="#DejaVuSans-30"/>
      </g>
     </g>
    </g>
    <g id="xtick_4">
     <g id="line2d_7">
      <path d="M 241.82 317.72 
L 241.82 41.4216 
" clip-path="url(#p2d7a5a1ed0)" style="fill: none; stroke: #ffffff; stroke-width: 0.8; stroke-linecap: square"/>
     </g>
     <g id="line2d_8">
      <g>
       <use xlink:href="#m25cb6304b3" x="241.82" y="317.72" style="fill: #555555; stroke: #555555; stroke-width: 0.8"/>
      </g>
     </g>
     <g id="text_4">
      <!-- 1 -->
      <g style="fill: #555555" transform="translate(238.63875 332.318437) scale(0.1 -0.1)">
       <use xlink:href="#DejaVuSans-31"/>
      </g>
     </g>
    </g>
    <g id="xtick_5">
     <g id="line2d_9">
      <path d="M 301.900808 317.72 
L 301.900808 41.4216 
" clip-path="url(#p2d7a5a1ed0)" style="fill: none; stroke: #ffffff; stroke-width: 0.8; stroke-linecap: square"/>
     </g>
     <g id="line2d_10">
      <g>
       <use xlink:href="#m25cb6304b3" x="301.900808" y="317.72" style="fill: #555555; stroke: #555555; stroke-width: 0.8"/>
      </g>
     </g>
     <g id="text_5">
      <!-- 2 -->
      <g style="fill: #555555" transform="translate(298.719558 332.318437) scale(0.1 -0.1)">
       <use xlink:href="#DejaVuSans-32"/>
      </g>
     </g>
    </g>
    <g id="xtick_6">
     <g id="line2d_11">
      <path d="M 361.981616 317.72 
L 361.981616 41.4216 
" clip-path="url(#p2d7a5a1ed0)" style="fill: none; stroke: #ffffff; stroke-width: 0.8; stroke-linecap: square"/>
     </g>
     <g id="line2d_12">
      <g>
       <use xlink:href="#m25cb6304b3" x="361.981616" y="317.72" style="fill: #555555; stroke: #555555; stroke-width: 0.8"/>
      </g>
     </g>
     <g id="text_6">
      <!-- 3 -->
      <g style="fill: #555555" transform="translate(358.800366 332.318437) scale(0.1 -0.1)">
       <defs>
        <path id="DejaVuSans-33" d="M 2597 2516 
Q 3050 2419 3304 2112 
Q 3559 1806 3559 1356 
Q 3559 666 3084 287 
Q 2609 -91 1734 -91 
Q 1441 -91 1130 -33 
Q 819 25 488 141 
L 488 750 
Q 750 597 1062 519 
Q 1375 441 1716 441 
Q 2309 441 2620 675 
Q 2931 909 2931 1356 
Q 2931 1769 2642 2001 
Q 2353 2234 1838 2234 
L 1294 2234 
L 1294 2753 
L 1863 2753 
Q 2328 2753 2575 2939 
Q 2822 3125 2822 3475 
Q 2822 3834 2567 4026 
Q 2313 4219 1838 4219 
Q 1578 4219 1281 4162 
Q 984 4106 628 3988 
L 628 4550 
Q 988 4650 1302 4700 
Q 1616 4750 1894 4750 
Q 2613 4750 3031 4423 
Q 3450 4097 3450 3541 
Q 3450 3153 3228 2886 
Q 3006 2619 2597 2516 
z
" transform="scale(0.015625)"/>
       </defs>
       <use xlink:href="#DejaVuSans-33"/>
      </g>
     </g>
    </g>
    <g id="xtick_7">
     <g id="line2d_13">
      <path d="M 422.062424 317.72 
L 422.062424 41.4216 
" clip-path="url(#p2d7a5a1ed0)" style="fill: none; stroke: #ffffff; stroke-width: 0.8; stroke-linecap: square"/>
     </g>
     <g id="line2d_14">
      <g>
       <use xlink:href="#m25cb6304b3" x="422.062424" y="317.72" style="fill: #555555; stroke: #555555; stroke-width: 0.8"/>
      </g>
     </g>
     <g id="text_7">
      <!-- 4 -->
      <g style="fill: #555555" transform="translate(418.881174 332.318437) scale(0.1 -0.1)">
       <defs>
        <path id="DejaVuSans-34" d="M 2419 4116 
L 825 1625 
L 2419 1625 
L 2419 4116 
z
M 2253 4666 
L 3047 4666 
L 3047 1625 
L 3713 1625 
L 3713 1100 
L 3047 1100 
L 3047 0 
L 2419 0 
L 2419 1100 
L 313 1100 
L 313 1709 
L 2253 4666 
z
" transform="scale(0.015625)"/>
       </defs>
       <use xlink:href="#DejaVuSans-34"/>
      </g>
     </g>
    </g>
   </g>
   <g id="matplotlib.axis_2">
    <g id="ytick_1">
     <g id="line2d_15">
      <path d="M 33.64 294.450885 
L 450 294.450885 
" clip-path="url(#p2d7a5a1ed0)" style="fill: none; stroke: #ffffff; stroke-width: 0.8; stroke-linecap: square"/>
     </g>
     <g id="line2d_16">
      <defs>
       <path id="mcb17cfe6c0" d="M 0 0 
L -3.5 0 
" style="stroke: #555555; stroke-width: 0.8"/>
      </defs>
      <g>
       <use xlink:href="#mcb17cfe6c0" x="33.64" y="294.450885" style="fill: #555555; stroke: #555555; stroke-width: 0.8"/>
      </g>
     </g>
     <g id="text_8">
      <!-- 0.0 -->
      <g style="fill: #555555" transform="translate(10.736875 298.250104) scale(0.1 -0.1)">
       <defs>
        <path id="DejaVuSans-2e" d="M 684 794 
L 1344 794 
L 1344 0 
L 684 0 
L 684 794 
z
" transform="scale(0.015625)"/>
       </defs>
       <use xlink:href="#DejaVuSans-30"/>
       <use xlink:href="#DejaVuSans-2e" x="63.623047"/>
       <use xlink:href="#DejaVuSans-30" x="95.410156"/>
      </g>
     </g>
    </g>
    <g id="ytick_2">
     <g id="line2d_17">
      <path d="M 33.64 246.356464 
L 450 246.356464 
" clip-path="url(#p2d7a5a1ed0)" style="fill: none; stroke: #ffffff; stroke-width: 0.8; stroke-linecap: square"/>
     </g>
     <g id="line2d_18">
      <g>
       <use xlink:href="#mcb17cfe6c0" x="33.64" y="246.356464" style="fill: #555555; stroke: #555555; stroke-width: 0.8"/>
      </g>
     </g>
     <g id="text_9">
      <!-- 0.2 -->
      <g style="fill: #555555" transform="translate(10.736875 250.155683) scale(0.1 -0.1)">
       <use xlink:href="#DejaVuSans-30"/>
       <use xlink:href="#DejaVuSans-2e" x="63.623047"/>
       <use xlink:href="#DejaVuSans-32" x="95.410156"/>
      </g>
     </g>
    </g>
    <g id="ytick_3">
     <g id="line2d_19">
      <path d="M 33.64 198.262044 
L 450 198.262044 
" clip-path="url(#p2d7a5a1ed0)" style="fill: none; stroke: #ffffff; stroke-width: 0.8; stroke-linecap: square"/>
     </g>
     <g id="line2d_20">
      <g>
       <use xlink:href="#mcb17cfe6c0" x="33.64" y="198.262044" style="fill: #555555; stroke: #555555; stroke-width: 0.8"/>
      </g>
     </g>
     <g id="text_10">
      <!-- 0.4 -->
      <g style="fill: #555555" transform="translate(10.736875 202.061262) scale(0.1 -0.1)">
       <use xlink:href="#DejaVuSans-30"/>
       <use xlink:href="#DejaVuSans-2e" x="63.623047"/>
       <use xlink:href="#DejaVuSans-34" x="95.410156"/>
      </g>
     </g>
    </g>
    <g id="ytick_4">
     <g id="line2d_21">
      <path d="M 33.64 150.167623 
L 450 150.167623 
" clip-path="url(#p2d7a5a1ed0)" style="fill: none; stroke: #ffffff; stroke-width: 0.8; stroke-linecap: square"/>
     </g>
     <g id="line2d_22">
      <g>
       <use xlink:href="#mcb17cfe6c0" x="33.64" y="150.167623" style="fill: #555555; stroke: #555555; stroke-width: 0.8"/>
      </g>
     </g>
     <g id="text_11">
      <!-- 0.6 -->
      <g style="fill: #555555" transform="translate(10.736875 153.966842) scale(0.1 -0.1)">
       <defs>
        <path id="DejaVuSans-36" d="M 2113 2584 
Q 1688 2584 1439 2293 
Q 1191 2003 1191 1497 
Q 1191 994 1439 701 
Q 1688 409 2113 409 
Q 2538 409 2786 701 
Q 3034 994 3034 1497 
Q 3034 2003 2786 2293 
Q 2538 2584 2113 2584 
z
M 3366 4563 
L 3366 3988 
Q 3128 4100 2886 4159 
Q 2644 4219 2406 4219 
Q 1781 4219 1451 3797 
Q 1122 3375 1075 2522 
Q 1259 2794 1537 2939 
Q 1816 3084 2150 3084 
Q 2853 3084 3261 2657 
Q 3669 2231 3669 1497 
Q 3669 778 3244 343 
Q 2819 -91 2113 -91 
Q 1303 -91 875 529 
Q 447 1150 447 2328 
Q 447 3434 972 4092 
Q 1497 4750 2381 4750 
Q 2619 4750 2861 4703 
Q 3103 4656 3366 4563 
z
" transform="scale(0.015625)"/>
       </defs>
       <use xlink:href="#DejaVuSans-30"/>
       <use xlink:href="#DejaVuSans-2e" x="63.623047"/>
       <use xlink:href="#DejaVuSans-36" x="95.410156"/>
      </g>
     </g>
    </g>
    <g id="ytick_5">
     <g id="line2d_23">
      <path d="M 33.64 102.073202 
L 450 102.073202 
" clip-path="url(#p2d7a5a1ed0)" style="fill: none; stroke: #ffffff; stroke-width: 0.8; stroke-linecap: square"/>
     </g>
     <g id="line2d_24">
      <g>
       <use xlink:href="#mcb17cfe6c0" x="33.64" y="102.073202" style="fill: #555555; stroke: #555555; stroke-width: 0.8"/>
      </g>
     </g>
     <g id="text_12">
      <!-- 0.8 -->
      <g style="fill: #555555" transform="translate(10.736875 105.872421) scale(0.1 -0.1)">
       <defs>
        <path id="DejaVuSans-38" d="M 2034 2216 
Q 1584 2216 1326 1975 
Q 1069 1734 1069 1313 
Q 1069 891 1326 650 
Q 1584 409 2034 409 
Q 2484 409 2743 651 
Q 3003 894 3003 1313 
Q 3003 1734 2745 1975 
Q 2488 2216 2034 2216 
z
M 1403 2484 
Q 997 2584 770 2862 
Q 544 3141 544 3541 
Q 544 4100 942 4425 
Q 1341 4750 2034 4750 
Q 2731 4750 3128 4425 
Q 3525 4100 3525 3541 
Q 3525 3141 3298 2862 
Q 3072 2584 2669 2484 
Q 3125 2378 3379 2068 
Q 3634 1759 3634 1313 
Q 3634 634 3220 271 
Q 2806 -91 2034 -91 
Q 1263 -91 848 271 
Q 434 634 434 1313 
Q 434 1759 690 2068 
Q 947 2378 1403 2484 
z
M 1172 3481 
Q 1172 3119 1398 2916 
Q 1625 2713 2034 2713 
Q 2441 2713 2670 2916 
Q 2900 3119 2900 3481 
Q 2900 3844 2670 4047 
Q 2441 4250 2034 4250 
Q 1625 4250 1398 4047 
Q 1172 3844 1172 3481 
z
" transform="scale(0.015625)"/>
       </defs>
       <use xlink:href="#DejaVuSans-30"/>
       <use xlink:href="#DejaVuSans-2e" x="63.623047"/>
       <use xlink:href="#DejaVuSans-38" x="95.410156"/>
      </g>
     </g>
    </g>
    <g id="ytick_6">
     <g id="line2d_25">
      <path d="M 33.64 53.978781 
L 450 53.978781 
" clip-path="url(#p2d7a5a1ed0)" style="fill: none; stroke: #ffffff; stroke-width: 0.8; stroke-linecap: square"/>
     </g>
     <g id="line2d_26">
      <g>
       <use xlink:href="#mcb17cfe6c0" x="33.64" y="53.978781" style="fill: #555555; stroke: #555555; stroke-width: 0.8"/>
      </g>
     </g>
     <g id="text_13">
      <!-- 1.0 -->
      <g style="fill: #555555" transform="translate(10.736875 57.778) scale(0.1 -0.1)">
       <use xlink:href="#DejaVuSans-31"/>
       <use xlink:href="#DejaVuSans-2e" x="63.623047"/>
       <use xlink:href="#DejaVuSans-30" x="95.410156"/>
      </g>
     </g>
    </g>
   </g>
   <g id="PolyCollection_1">
    <defs>
     <path id="m47ecd0d954" d="M 61.577576 -51.149115 
L 61.577576 -55.553515 
L 65.255993 -68.531963 
L 68.934409 -81.041122 
L 72.612826 -93.080992 
L 76.291243 -104.651573 
L 79.96966 -115.752866 
L 83.648077 -126.384869 
L 87.326494 -136.547584 
L 91.00491 -146.241011 
L 94.683327 -155.465148 
L 98.361744 -164.219997 
L 102.040161 -172.505557 
L 105.718578 -180.321828 
L 109.396994 -187.66881 
L 113.075411 -194.546504 
L 116.753828 -200.954909 
L 120.432245 -206.894025 
L 124.110662 -212.363852 
L 127.789079 -217.364391 
L 131.467495 -221.89564 
L 135.145912 -225.957602 
L 138.824329 -229.550274 
L 142.502746 -232.673657 
L 146.181163 -235.327752 
L 149.859579 -237.512558 
L 153.537996 -239.228075 
L 157.216413 -240.474304 
L 160.89483 -241.251243 
L 164.573247 -241.558894 
L 168.251664 -241.397256 
L 171.93008 -240.76633 
L 175.608497 -239.666114 
L 179.286914 -238.09661 
L 182.965331 -236.057817 
L 186.643748 -233.549736 
L 190.322165 -230.572365 
L 194.000581 -227.125706 
L 197.678998 -223.209758 
L 201.357415 -218.824521 
L 205.035832 -213.969996 
L 208.714249 -208.646181 
L 212.392665 -202.853078 
L 216.071082 -196.590686 
L 219.749499 -189.859006 
L 223.427916 -182.658036 
L 227.106333 -174.987778 
L 230.78475 -166.848231 
L 234.463166 -158.239396 
L 238.141583 -149.161271 
L 241.82 -139.613858 
L 241.82 -51.149115 
L 241.82 -51.149115 
L 238.141583 -51.149115 
L 234.463166 -51.149115 
L 230.78475 -51.149115 
L 227.106333 -51.149115 
L 223.427916 -51.149115 
L 219.749499 -51.149115 
L 216.071082 -51.149115 
L 212.392665 -51.149115 
L 208.714249 -51.149115 
L 205.035832 -51.149115 
L 201.357415 -51.149115 
L 197.678998 -51.149115 
L 194.000581 -51.149115 
L 190.322165 -51.149115 
L 186.643748 -51.149115 
L 182.965331 -51.149115 
L 179.286914 -51.149115 
L 175.608497 -51.149115 
L 171.93008 -51.149115 
L 168.251664 -51.149115 
L 164.573247 -51.149115 
L 160.89483 -51.149115 
L 157.216413 -51.149115 
L 153.537996 -51.149115 
L 149.859579 -51.149115 
L 146.181163 -51.149115 
L 142.502746 -51.149115 
L 138.824329 -51.149115 
L 135.145912 -51.149115 
L 131.467495 -51.149115 
L 127.789079 -51.149115 
L 124.110662 -51.149115 
L 120.432245 -51.149115 
L 116.753828 -51.149115 
L 113.075411 -51.149115 
L 109.396994 -51.149115 
L 105.718578 -51.149115 
L 102.040161 -51.149115 
L 98.361744 -51.149115 
L 94.683327 -51.149115 
L 91.00491 -51.149115 
L 87.326494 -51.149115 
L 83.648077 -51.149115 
L 79.96966 -51.149115 
L 76.291243 -51.149115 
L 72.612826 -51.149115 
L 68.934409 -51.149115 
L 65.255993 -51.149115 
L 61.577576 -51.149115 
z
" style="stroke: #e24a33; stroke-width: 0.5"/>
    </defs>
    <g clip-path="url(#p2d7a5a1ed0)">
     <use xlink:href="#m47ecd0d954" x="0" y="345.6" style="fill: #e24a33; stroke: #e24a33; stroke-width: 0.5"/>
    </g>
   </g>
   <g id="PolyCollection_2">
    <defs>
     <path id="mf462b73a90" d="M 241.82 -51.149115 
L 241.82 -139.613858 
L 245.498417 -134.308461 
L 249.176834 -129.148897 
L 252.85525 -124.135166 
L 256.533667 -119.267268 
L 260.212084 -114.545203 
L 263.890501 -109.968972 
L 267.568918 -105.538573 
L 271.247335 -101.254008 
L 274.925751 -97.115275 
L 278.604168 -93.122376 
L 282.282585 -89.27531 
L 285.961002 -85.574077 
L 289.639419 -82.018678 
L 293.317835 -78.609111 
L 296.996252 -75.345377 
L 300.674669 -72.227477 
L 304.353086 -69.25541 
L 308.031503 -66.429175 
L 311.70992 -63.748774 
L 315.388336 -61.214206 
L 319.066753 -58.825472 
L 322.74517 -56.58257 
L 326.423587 -54.485501 
L 330.102004 -52.534266 
L 333.780421 -50.728863 
L 337.458837 -49.069294 
L 341.137254 -47.555558 
L 344.815671 -46.187655 
L 348.494088 -44.965585 
L 352.172505 -43.889348 
L 355.850921 -42.958945 
L 359.529338 -42.174374 
L 363.207755 -41.535637 
L 366.886172 -41.042732 
L 370.564589 -40.695661 
L 374.243006 -40.494423 
L 377.921422 -40.439018 
L 381.599839 -40.529446 
L 385.278256 -40.765708 
L 388.956673 -41.147802 
L 392.63509 -41.67573 
L 396.313506 -42.34949 
L 399.991923 -43.169084 
L 403.67034 -44.134511 
L 407.348757 -45.245771 
L 411.027174 -46.502864 
L 414.705591 -47.90579 
L 418.384007 -49.45455 
L 422.062424 -51.149142 
L 422.062424 -51.149115 
L 422.062424 -51.149115 
L 418.384007 -51.149115 
L 414.705591 -51.149115 
L 411.027174 -51.149115 
L 407.348757 -51.149115 
L 403.67034 -51.149115 
L 399.991923 -51.149115 
L 396.313506 -51.149115 
L 392.63509 -51.149115 
L 388.956673 -51.149115 
L 385.278256 -51.149115 
L 381.599839 -51.149115 
L 377.921422 -51.149115 
L 374.243006 -51.149115 
L 370.564589 -51.149115 
L 366.886172 -51.149115 
L 363.207755 -51.149115 
L 359.529338 -51.149115 
L 355.850921 -51.149115 
L 352.172505 -51.149115 
L 348.494088 -51.149115 
L 344.815671 -51.149115 
L 341.137254 -51.149115 
L 337.458837 -51.149115 
L 333.780421 -51.149115 
L 330.102004 -51.149115 
L 326.423587 -51.149115 
L 322.74517 -51.149115 
L 319.066753 -51.149115 
L 315.388336 -51.149115 
L 311.70992 -51.149115 
L 308.031503 -51.149115 
L 304.353086 -51.149115 
L 300.674669 -51.149115 
L 296.996252 -51.149115 
L 293.317835 -51.149115 
L 289.639419 -51.149115 
L 285.961002 -51.149115 
L 282.282585 -51.149115 
L 278.604168 -51.149115 
L 274.925751 -51.149115 
L 271.247335 -51.149115 
L 267.568918 -51.149115 
L 263.890501 -51.149115 
L 260.212084 -51.149115 
L 256.533667 -51.149115 
L 252.85525 -51.149115 
L 249.176834 -51.149115 
L 245.498417 -51.149115 
L 241.82 -51.149115 
z
" style="stroke: #e24a33; stroke-width: 0.5"/>
    </defs>
    <g clip-path="url(#p2d7a5a1ed0)">
     <use xlink:href="#mf462b73a90" x="0" y="345.6" style="fill: #e24a33; stroke: #e24a33; stroke-width: 0.5"/>
    </g>
   </g>
   <g id="line2d_27">
    <path d="M 52.565455 292.087478 
L 56.369566 291.360312 
L 60.173677 290.441689 
L 63.977789 289.291553 
L 67.7819 287.864494 
L 71.586012 286.109862 
L 75.390123 283.972146 
L 79.194235 281.391687 
L 82.998346 278.305743 
L 86.802458 274.649979 
L 88.704513 272.588334 
L 90.606569 270.36037 
L 92.508625 267.958517 
L 94.410681 265.375536 
L 98.214792 259.639473 
L 102.018904 253.104631 
L 105.823015 245.735231 
L 109.627127 237.510718 
L 113.431238 228.429174 
L 117.235349 218.510526 
L 121.039461 207.799331 
L 124.843572 196.366945 
L 128.647684 184.31286 
L 134.353851 165.353544 
L 149.570297 113.916389 
L 153.374408 102.024105 
L 157.17852 90.986377 
L 160.982631 81.033572 
L 162.884687 76.53227 
L 164.786743 72.381613 
L 166.688799 68.605059 
L 168.590854 65.224225 
L 170.49291 62.258676 
L 172.394966 59.725738 
L 174.297021 57.64033 
L 176.199077 56.014818 
L 178.101133 54.858891 
L 180.003189 54.179465 
L 181.905244 53.980618 
L 183.8073 54.263544 
L 185.709356 55.026542 
L 187.611412 56.265038 
L 189.513467 57.971625 
L 191.415523 60.136137 
L 193.317579 62.745755 
L 195.219635 65.785129 
L 197.12169 69.236527 
L 199.023746 73.080013 
L 200.925802 77.293633 
L 202.827857 81.853628 
L 206.631969 91.910015 
L 210.43608 103.031673 
L 214.240192 114.987353 
L 219.946359 133.966352 
L 233.260749 179.185957 
L 237.064861 191.460926 
L 240.868972 203.163572 
L 244.673084 214.182634 
L 248.477195 224.435254 
L 252.281307 233.866033 
L 256.085418 242.445186 
L 259.889529 250.165987 
L 263.693641 257.041704 
L 267.497752 263.102253 
L 271.301864 268.390741 
L 275.105975 272.96007 
L 278.910087 276.869755 
L 282.714198 280.183036 
L 286.51831 282.964376 
L 290.322421 285.277376 
L 294.126533 287.183123 
L 297.930644 288.738943 
L 301.734756 289.997557 
L 305.538867 291.006565 
L 309.342979 291.808233 
L 315.049146 292.701377 
L 320.755313 293.313371 
L 328.363536 293.827881 
L 337.873815 294.170296 
L 351.188205 294.366451 
L 375.914929 294.44389 
L 431.074545 294.450877 
L 431.074545 294.450877 
" clip-path="url(#p2d7a5a1ed0)" style="fill: none; stroke: #000000; stroke-width: 1.5; stroke-linecap: square"/>
   </g>
   <g id="line2d_28">
    <defs>
     <path id="m23ac121d3c" d="M 0 1.5 
C 0.397805 1.5 0.77937 1.341951 1.06066 1.06066 
C 1.341951 0.77937 1.5 0.397805 1.5 0 
C 1.5 -0.397805 1.341951 -0.77937 1.06066 -1.06066 
C 0.77937 -1.341951 0.397805 -1.5 0 -1.5 
C -0.397805 -1.5 -0.77937 -1.341951 -1.06066 -1.06066 
C -1.341951 -0.77937 -1.5 -0.397805 -1.5 0 
C -1.5 0.397805 -1.341951 0.77937 -1.06066 1.06066 
C -0.77937 1.341951 -0.397805 1.5 0 1.5 
z
" style="stroke: #000000"/>
    </defs>
    <g clip-path="url(#p2d7a5a1ed0)">
     <use xlink:href="#m23ac121d3c" x="61.577576" y="290.046485" style="stroke: #000000"/>
     <use xlink:href="#m23ac121d3c" x="151.698788" y="107.171022" style="stroke: #000000"/>
     <use xlink:href="#m23ac121d3c" x="241.82" y="205.986142" style="stroke: #000000"/>
     <use xlink:href="#m23ac121d3c" x="331.941212" y="293.986665" style="stroke: #000000"/>
     <use xlink:href="#m23ac121d3c" x="422.062424" y="294.450858" style="stroke: #000000"/>
    </g>
   </g>
   <g id="LineCollection_1">
    <path d="M 61.577576 294.450885 
L 61.577576 290.046485 
" clip-path="url(#p2d7a5a1ed0)" style="fill: none; stroke: #000000; stroke-width: 0.5"/>
    <path d="M 151.698788 294.450885 
L 151.698788 107.171022 
" clip-path="url(#p2d7a5a1ed0)" style="fill: none; stroke: #000000; stroke-width: 0.5"/>
    <path d="M 241.82 294.450885 
L 241.82 205.986142 
" clip-path="url(#p2d7a5a1ed0)" style="fill: none; stroke: #000000; stroke-width: 0.5"/>
    <path d="M 331.941212 294.450885 
L 331.941212 293.986665 
" clip-path="url(#p2d7a5a1ed0)" style="fill: none; stroke: #000000; stroke-width: 0.5"/>
    <path d="M 422.062424 294.450885 
L 422.062424 294.450858 
" clip-path="url(#p2d7a5a1ed0)" style="fill: none; stroke: #000000; stroke-width: 0.5"/>
   </g>
   <g id="LineCollection_2">
    <path d="M 61.577576 294.450885 
L 422.062424 294.450885 
" clip-path="url(#p2d7a5a1ed0)" style="fill: none; stroke: #000000; stroke-width: 0.5"/>
   </g>
   <g id="line2d_29">
    <path d="M 61.577576 290.046485 
L 65.255993 277.068037 
L 68.934409 264.558878 
L 72.612826 252.519008 
L 76.291243 240.948427 
L 79.96966 229.847134 
L 83.648077 219.215131 
L 87.326494 209.052416 
L 91.00491 199.358989 
L 94.683327 190.134852 
L 98.361744 181.380003 
L 102.040161 173.094443 
L 105.718578 165.278172 
L 109.396994 157.93119 
L 113.075411 151.053496 
L 116.753828 144.645091 
L 120.432245 138.705975 
L 124.110662 133.236148 
L 127.789079 128.235609 
L 131.467495 123.70436 
L 135.145912 119.642398 
L 138.824329 116.049726 
L 142.502746 112.926343 
L 146.181163 110.272248 
L 149.859579 108.087442 
L 153.537996 106.371925 
L 157.216413 105.125696 
L 160.89483 104.348757 
L 164.573247 104.041106 
L 168.251664 104.202744 
L 171.93008 104.83367 
L 175.608497 105.933886 
L 179.286914 107.50339 
L 182.965331 109.542183 
L 186.643748 112.050264 
L 190.322165 115.027635 
L 194.000581 118.474294 
L 197.678998 122.390242 
L 201.357415 126.775479 
L 205.035832 131.630004 
L 208.714249 136.953819 
L 212.392665 142.746922 
L 216.071082 149.009314 
L 219.749499 155.740994 
L 223.427916 162.941964 
L 227.106333 170.612222 
L 230.78475 178.751769 
L 234.463166 187.360604 
L 238.141583 196.438729 
L 241.82 205.986142 
" clip-path="url(#p2d7a5a1ed0)" style="fill: none; stroke: #000000; stroke-width: 0.5; stroke-linecap: square"/>
   </g>
   <g id="line2d_30">
    <path d="M 241.82 205.986142 
L 245.498417 211.291539 
L 249.176834 216.451103 
L 252.85525 221.464834 
L 256.533667 226.332732 
L 260.212084 231.054797 
L 263.890501 235.631028 
L 267.568918 240.061427 
L 271.247335 244.345992 
L 274.925751 248.484725 
L 278.604168 252.477624 
L 282.282585 256.32469 
L 285.961002 260.025923 
L 289.639419 263.581322 
L 293.317835 266.990889 
L 296.996252 270.254623 
L 300.674669 273.372523 
L 304.353086 276.34459 
L 308.031503 279.170825 
L 311.70992 281.851226 
L 315.388336 284.385794 
L 319.066753 286.774528 
L 322.74517 289.01743 
L 326.423587 291.114499 
L 330.102004 293.065734 
L 333.780421 294.871137 
L 337.458837 296.530706 
L 341.137254 298.044442 
L 344.815671 299.412345 
L 348.494088 300.634415 
L 352.172505 301.710652 
L 355.850921 302.641055 
L 359.529338 303.425626 
L 363.207755 304.064363 
L 366.886172 304.557268 
L 370.564589 304.904339 
L 374.243006 305.105577 
L 377.921422 305.160982 
L 381.599839 305.070554 
L 385.278256 304.834292 
L 388.956673 304.452198 
L 392.63509 303.92427 
L 396.313506 303.25051 
L 399.991923 302.430916 
L 403.67034 301.465489 
L 407.348757 300.354229 
L 411.027174 299.097136 
L 414.705591 297.69421 
L 418.384007 296.14545 
L 422.062424 294.450858 
" clip-path="url(#p2d7a5a1ed0)" style="fill: none; stroke: #000000; stroke-width: 0.5; stroke-linecap: square"/>
   </g>
   <g id="patch_3">
    <path d="M 33.64 317.72 
L 33.64 41.4216 
" style="fill: none; stroke: #ffffff; stroke-linejoin: miter; stroke-linecap: square"/>
   </g>
   <g id="patch_4">
    <path d="M 450 317.72 
L 450 41.4216 
" style="fill: none; stroke: #ffffff; stroke-linejoin: miter; stroke-linecap: square"/>
   </g>
   <g id="patch_5">
    <path d="M 33.64 317.72 
L 450 317.72 
" style="fill: none; stroke: #ffffff; stroke-linejoin: miter; stroke-linecap: square"/>
   </g>
   <g id="patch_6">
    <path d="M 33.64 41.4216 
L 450 41.4216 
" style="fill: none; stroke: #ffffff; stroke-linejoin: miter; stroke-linecap: square"/>
   </g>
  </g>
  <g id="text_14">
   <!-- Quadrature approximation of $e^{- x^{2}}$ -->
   <g transform="translate(128.4 19.152) scale(0.12 -0.12)">
    <defs>
     <path id="DejaVuSans-51" d="M 2522 4238 
Q 1834 4238 1429 3725 
Q 1025 3213 1025 2328 
Q 1025 1447 1429 934 
Q 1834 422 2522 422 
Q 3209 422 3611 934 
Q 4013 1447 4013 2328 
Q 4013 3213 3611 3725 
Q 3209 4238 2522 4238 
z
M 3406 84 
L 4238 -825 
L 3475 -825 
L 2784 -78 
Q 2681 -84 2626 -87 
Q 2572 -91 2522 -91 
Q 1538 -91 948 567 
Q 359 1225 359 2328 
Q 359 3434 948 4092 
Q 1538 4750 2522 4750 
Q 3503 4750 4090 4092 
Q 4678 3434 4678 2328 
Q 4678 1516 4351 937 
Q 4025 359 3406 84 
z
" transform="scale(0.015625)"/>
     <path id="DejaVuSans-75" d="M 544 1381 
L 544 3500 
L 1119 3500 
L 1119 1403 
Q 1119 906 1312 657 
Q 1506 409 1894 409 
Q 2359 409 2629 706 
Q 2900 1003 2900 1516 
L 2900 3500 
L 3475 3500 
L 3475 0 
L 2900 0 
L 2900 538 
Q 2691 219 2414 64 
Q 2138 -91 1772 -91 
Q 1169 -91 856 284 
Q 544 659 544 1381 
z
M 1991 3584 
L 1991 3584 
z
" transform="scale(0.015625)"/>
     <path id="DejaVuSans-61" d="M 2194 1759 
Q 1497 1759 1228 1600 
Q 959 1441 959 1056 
Q 959 750 1161 570 
Q 1363 391 1709 391 
Q 2188 391 2477 730 
Q 2766 1069 2766 1631 
L 2766 1759 
L 2194 1759 
z
M 3341 1997 
L 3341 0 
L 2766 0 
L 2766 531 
Q 2569 213 2275 61 
Q 1981 -91 1556 -91 
Q 1019 -91 701 211 
Q 384 513 384 1019 
Q 384 1609 779 1909 
Q 1175 2209 1959 2209 
L 2766 2209 
L 2766 2266 
Q 2766 2663 2505 2880 
Q 2244 3097 1772 3097 
Q 1472 3097 1187 3025 
Q 903 2953 641 2809 
L 641 3341 
Q 956 3463 1253 3523 
Q 1550 3584 1831 3584 
Q 2591 3584 2966 3190 
Q 3341 2797 3341 1997 
z
" transform="scale(0.015625)"/>
     <path id="DejaVuSans-64" d="M 2906 2969 
L 2906 4863 
L 3481 4863 
L 3481 0 
L 2906 0 
L 2906 525 
Q 2725 213 2448 61 
Q 2172 -91 1784 -91 
Q 1150 -91 751 415 
Q 353 922 353 1747 
Q 353 2572 751 3078 
Q 1150 3584 1784 3584 
Q 2172 3584 2448 3432 
Q 2725 3281 2906 2969 
z
M 947 1747 
Q 947 1113 1208 752 
Q 1469 391 1925 391 
Q 2381 391 2643 752 
Q 2906 1113 2906 1747 
Q 2906 2381 2643 2742 
Q 2381 3103 1925 3103 
Q 1469 3103 1208 2742 
Q 947 2381 947 1747 
z
" transform="scale(0.015625)"/>
     <path id="DejaVuSans-72" d="M 2631 2963 
Q 2534 3019 2420 3045 
Q 2306 3072 2169 3072 
Q 1681 3072 1420 2755 
Q 1159 2438 1159 1844 
L 1159 0 
L 581 0 
L 581 3500 
L 1159 3500 
L 1159 2956 
Q 1341 3275 1631 3429 
Q 1922 3584 2338 3584 
Q 2397 3584 2469 3576 
Q 2541 3569 2628 3553 
L 2631 2963 
z
" transform="scale(0.015625)"/>
     <path id="DejaVuSans-74" d="M 1172 4494 
L 1172 3500 
L 2356 3500 
L 2356 3053 
L 1172 3053 
L 1172 1153 
Q 1172 725 1289 603 
Q 1406 481 1766 481 
L 2356 481 
L 2356 0 
L 1766 0 
Q 1100 0 847 248 
Q 594 497 594 1153 
L 594 3053 
L 172 3053 
L 172 3500 
L 594 3500 
L 594 4494 
L 1172 4494 
z
" transform="scale(0.015625)"/>
     <path id="DejaVuSans-65" d="M 3597 1894 
L 3597 1613 
L 953 1613 
Q 991 1019 1311 708 
Q 1631 397 2203 397 
Q 2534 397 2845 478 
Q 3156 559 3463 722 
L 3463 178 
Q 3153 47 2828 -22 
Q 2503 -91 2169 -91 
Q 1331 -91 842 396 
Q 353 884 353 1716 
Q 353 2575 817 3079 
Q 1281 3584 2069 3584 
Q 2775 3584 3186 3129 
Q 3597 2675 3597 1894 
z
M 3022 2063 
Q 3016 2534 2758 2815 
Q 2500 3097 2075 3097 
Q 1594 3097 1305 2825 
Q 1016 2553 972 2059 
L 3022 2063 
z
" transform="scale(0.015625)"/>
     <path id="DejaVuSans-20" transform="scale(0.015625)"/>
     <path id="DejaVuSans-70" d="M 1159 525 
L 1159 -1331 
L 581 -1331 
L 581 3500 
L 1159 3500 
L 1159 2969 
Q 1341 3281 1617 3432 
Q 1894 3584 2278 3584 
Q 2916 3584 3314 3078 
Q 3713 2572 3713 1747 
Q 3713 922 3314 415 
Q 2916 -91 2278 -91 
Q 1894 -91 1617 61 
Q 1341 213 1159 525 
z
M 3116 1747 
Q 3116 2381 2855 2742 
Q 2594 3103 2138 3103 
Q 1681 3103 1420 2742 
Q 1159 2381 1159 1747 
Q 1159 1113 1420 752 
Q 1681 391 2138 391 
Q 2594 391 2855 752 
Q 3116 1113 3116 1747 
z
" transform="scale(0.015625)"/>
     <path id="DejaVuSans-6f" d="M 1959 3097 
Q 1497 3097 1228 2736 
Q 959 2375 959 1747 
Q 959 1119 1226 758 
Q 1494 397 1959 397 
Q 2419 397 2687 759 
Q 2956 1122 2956 1747 
Q 2956 2369 2687 2733 
Q 2419 3097 1959 3097 
z
M 1959 3584 
Q 2709 3584 3137 3096 
Q 3566 2609 3566 1747 
Q 3566 888 3137 398 
Q 2709 -91 1959 -91 
Q 1206 -91 779 398 
Q 353 888 353 1747 
Q 353 2609 779 3096 
Q 1206 3584 1959 3584 
z
" transform="scale(0.015625)"/>
     <path id="DejaVuSans-78" d="M 3513 3500 
L 2247 1797 
L 3578 0 
L 2900 0 
L 1881 1375 
L 863 0 
L 184 0 
L 1544 1831 
L 300 3500 
L 978 3500 
L 1906 2253 
L 2834 3500 
L 3513 3500 
z
" transform="scale(0.015625)"/>
     <path id="DejaVuSans-69" d="M 603 3500 
L 1178 3500 
L 1178 0 
L 603 0 
L 603 3500 
z
M 603 4863 
L 1178 4863 
L 1178 4134 
L 603 4134 
L 603 4863 
z
" transform="scale(0.015625)"/>
     <path id="DejaVuSans-6d" d="M 3328 2828 
Q 3544 3216 3844 3400 
Q 4144 3584 4550 3584 
Q 5097 3584 5394 3201 
Q 5691 2819 5691 2113 
L 5691 0 
L 5113 0 
L 5113 2094 
Q 5113 2597 4934 2840 
Q 4756 3084 4391 3084 
Q 3944 3084 3684 2787 
Q 3425 2491 3425 1978 
L 3425 0 
L 2847 0 
L 2847 2094 
Q 2847 2600 2669 2842 
Q 2491 3084 2119 3084 
Q 1678 3084 1418 2786 
Q 1159 2488 1159 1978 
L 1159 0 
L 581 0 
L 581 3500 
L 1159 3500 
L 1159 2956 
Q 1356 3278 1631 3431 
Q 1906 3584 2284 3584 
Q 2666 3584 2933 3390 
Q 3200 3197 3328 2828 
z
" transform="scale(0.015625)"/>
     <path id="DejaVuSans-6e" d="M 3513 2113 
L 3513 0 
L 2938 0 
L 2938 2094 
Q 2938 2591 2744 2837 
Q 2550 3084 2163 3084 
Q 1697 3084 1428 2787 
Q 1159 2491 1159 1978 
L 1159 0 
L 581 0 
L 581 3500 
L 1159 3500 
L 1159 2956 
Q 1366 3272 1645 3428 
Q 1925 3584 2291 3584 
Q 2894 3584 3203 3211 
Q 3513 2838 3513 2113 
z
" transform="scale(0.015625)"/>
     <path id="DejaVuSans-66" d="M 2375 4863 
L 2375 4384 
L 1825 4384 
Q 1516 4384 1395 4259 
Q 1275 4134 1275 3809 
L 1275 3500 
L 2222 3500 
L 2222 3053 
L 1275 3053 
L 1275 0 
L 697 0 
L 697 3053 
L 147 3053 
L 147 3500 
L 697 3500 
L 697 3744 
Q 697 4328 969 4595 
Q 1241 4863 1831 4863 
L 2375 4863 
z
" transform="scale(0.015625)"/>
     <path id="DejaVuSans-Oblique-65" d="M 3078 2063 
Q 3088 2113 3092 2166 
Q 3097 2219 3097 2272 
Q 3097 2653 2873 2875 
Q 2650 3097 2266 3097 
Q 1838 3097 1509 2826 
Q 1181 2556 1013 2059 
L 3078 2063 
z
M 3578 1613 
L 903 1613 
Q 884 1494 878 1425 
Q 872 1356 872 1306 
Q 872 872 1139 634 
Q 1406 397 1894 397 
Q 2269 397 2603 481 
Q 2938 566 3225 728 
L 3116 159 
Q 2806 34 2476 -28 
Q 2147 -91 1806 -91 
Q 1078 -91 686 257 
Q 294 606 294 1247 
Q 294 1794 489 2264 
Q 684 2734 1063 3103 
Q 1306 3334 1642 3459 
Q 1978 3584 2356 3584 
Q 2950 3584 3301 3228 
Q 3653 2872 3653 2272 
Q 3653 2128 3634 1964 
Q 3616 1800 3578 1613 
z
" transform="scale(0.015625)"/>
     <path id="DejaVuSans-Oblique-78" d="M 3841 3500 
L 2234 1784 
L 3219 0 
L 2559 0 
L 1819 1388 
L 531 0 
L -166 0 
L 1556 1844 
L 641 3500 
L 1300 3500 
L 1972 2234 
L 3144 3500 
L 3841 3500 
z
" transform="scale(0.015625)"/>
    </defs>
    <use xlink:href="#DejaVuSans-51" transform="translate(0 0.554688)"/>
    <use xlink:href="#DejaVuSans-75" transform="translate(78.710938 0.554688)"/>
    <use xlink:href="#DejaVuSans-61" transform="translate(142.089844 0.554688)"/>
    <use xlink:href="#DejaVuSans-64" transform="translate(203.369141 0.554688)"/>
    <use xlink:href="#DejaVuSans-72" transform="translate(266.845703 0.554688)"/>
    <use xlink:href="#DejaVuSans-61" transform="translate(307.958984 0.554688)"/>
    <use xlink:href="#DejaVuSans-74" transform="translate(369.238281 0.554688)"/>
    <use xlink:href="#DejaVuSans-75" transform="translate(408.447266 0.554688)"/>
    <use xlink:href="#DejaVuSans-72" transform="translate(471.826172 0.554688)"/>
    <use xlink:href="#DejaVuSans-65" transform="translate(512.939453 0.554688)"/>
    <use xlink:href="#DejaVuSans-20" transform="translate(574.462891 0.554688)"/>
    <use xlink:href="#DejaVuSans-61" transform="translate(606.25 0.554688)"/>
    <use xlink:href="#DejaVuSans-70" transform="translate(667.529297 0.554688)"/>
    <use xlink:href="#DejaVuSans-70" transform="translate(731.005859 0.554688)"/>
    <use xlink:href="#DejaVuSans-72" transform="translate(794.482422 0.554688)"/>
    <use xlink:href="#DejaVuSans-6f" transform="translate(835.595703 0.554688)"/>
    <use xlink:href="#DejaVuSans-78" transform="translate(896.777344 0.554688)"/>
    <use xlink:href="#DejaVuSans-69" transform="translate(955.957031 0.554688)"/>
    <use xlink:href="#DejaVuSans-6d" transform="translate(983.740234 0.554688)"/>
    <use xlink:href="#DejaVuSans-61" transform="translate(1081.152344 0.554688)"/>
    <use xlink:href="#DejaVuSans-74" transform="translate(1142.431641 0.554688)"/>
    <use xlink:href="#DejaVuSans-69" transform="translate(1181.640625 0.554688)"/>
    <use xlink:href="#DejaVuSans-6f" transform="translate(1209.423828 0.554688)"/>
    <use xlink:href="#DejaVuSans-6e" transform="translate(1270.605469 0.554688)"/>
    <use xlink:href="#DejaVuSans-20" transform="translate(1333.984375 0.554688)"/>
    <use xlink:href="#DejaVuSans-6f" transform="translate(1365.771484 0.554688)"/>
    <use xlink:href="#DejaVuSans-66" transform="translate(1426.953125 0.554688)"/>
    <use xlink:href="#DejaVuSans-20" transform="translate(1462.158203 0.554688)"/>
    <use xlink:href="#DejaVuSans-Oblique-65" transform="translate(1493.945312 0.554688)"/>
    <use xlink:href="#DejaVuSans-2212" transform="translate(1560.118646 38.835938) scale(0.7)"/>
    <use xlink:href="#DejaVuSans-Oblique-78" transform="translate(1618.77099 38.835938) scale(0.7)"/>
    <use xlink:href="#DejaVuSans-32" transform="translate(1663.323073 65.632812) scale(0.49)"/>
   </g>
  </g>
 </g>
 <defs>
  <clipPath id="p2d7a5a1ed0">
   <rect x="33.64" y="41.4216" width="416.36" height="276.2984"/>
  </clipPath>
 </defs>
</svg>
