<?xml version="1.0" encoding="utf-8" standalone="no"?>
<!DOCTYPE svg PUBLIC "-//W3C//DTD SVG 1.1//EN"
  "http://www.w3.org/Graphics/SVG/1.1/DTD/svg11.dtd">
<svg xmlns:xlink="http://www.w3.org/1999/xlink" width="460.8pt" height="345.6pt" viewBox="0 0 460.8 345.6" xmlns="http://www.w3.org/2000/svg" version="1.1">
 <metadata>
  <rdf:RDF xmlns:dc="http://purl.org/dc/elements/1.1/" xmlns:cc="http://creativecommons.org/ns#" xmlns:rdf="http://www.w3.org/1999/02/22-rdf-syntax-ns#">
   <cc:Work>
    <dc:type rdf:resource="http://purl.org/dc/dcmitype/StillImage"/>
    <dc:date>2024-04-30T19:18:32.526470</dc:date>
    <dc:format>image/svg+xml</dc:format>
    <dc:creator>
     <cc:Agent>
      <dc:title>Matplotlib v3.8.4, https://matplotlib.org/</dc:title>
     </cc:Agent>
    </dc:creator>
   </cc:Work>
  </rdf:RDF>
 </metadata>
 <defs>
  <style type="text/css">*{stroke-linejoin: round; stroke-linecap: butt}</style>
 </defs>
 <g id="figure_1">
  <g id="patch_1">
   <path d="M 0 345.6 
L 460.8 345.6 
L 460.8 0 
L 0 0 
z
" style="fill: #ffffff"/>
  </g>
  <g id="axes_1">
   <g id="patch_2">
    <path d="M 41.92 317.72 
L 450 317.72 
L 450 38.952 
L 41.92 38.952 
z
" style="fill: #e5e5e5"/>
   </g>
   <g id="matplotlib.axis_1">
    <g id="xtick_1">
     <g id="line2d_1">
      <path d="M 69.301991 317.72 
L 69.301991 38.952 
" clip-path="url(#pf760a278bb)" style="fill: none; stroke: #ffffff; stroke-width: 0.8; stroke-linecap: square"/>
     </g>
     <g id="line2d_2">
      <defs>
       <path id="m26f3a18159" d="M 0 0 
L 0 3.5 
" style="stroke: #555555; stroke-width: 0.8"/>
      </defs>
      <g>
       <use xlink:href="#m26f3a18159" x="69.301991" y="317.72" style="fill: #555555; stroke: #555555; stroke-width: 0.8"/>
      </g>
     </g>
     <g id="text_1">
      <!-- −2 -->
      <g style="fill: #555555" transform="translate(61.930898 332.318437) scale(0.1 -0.1)">
       <defs>
        <path id="DejaVuSans-2212" d="M 678 2272 
L 4684 2272 
L 4684 1741 
L 678 1741 
L 678 2272 
z
" transform="scale(0.015625)"/>
        <path id="DejaVuSans-32" d="M 1228 531 
L 3431 531 
L 3431 0 
L 469 0 
L 469 531 
Q 828 903 1448 1529 
Q 2069 2156 2228 2338 
Q 2531 2678 2651 2914 
Q 2772 3150 2772 3378 
Q 2772 3750 2511 3984 
Q 2250 4219 1831 4219 
Q 1534 4219 1204 4116 
Q 875 4013 500 3803 
L 500 4441 
Q 881 4594 1212 4672 
Q 1544 4750 1819 4750 
Q 2544 4750 2975 4387 
Q 3406 4025 3406 3419 
Q 3406 3131 3298 2873 
Q 3191 2616 2906 2266 
Q 2828 2175 2409 1742 
Q 1991 1309 1228 531 
z
" transform="scale(0.015625)"/>
       </defs>
       <use xlink:href="#DejaVuSans-2212"/>
       <use xlink:href="#DejaVuSans-32" x="83.789062"/>
      </g>
     </g>
    </g>
    <g id="xtick_2">
     <g id="line2d_3">
      <path d="M 139.965195 317.72 
L 139.965195 38.952 
" clip-path="url(#pf760a278bb)" style="fill: none; stroke: #ffffff; stroke-width: 0.8; stroke-linecap: square"/>
     </g>
     <g id="line2d_4">
      <g>
       <use xlink:href="#m26f3a18159" x="139.965195" y="317.72" style="fill: #555555; stroke: #555555; stroke-width: 0.8"/>
      </g>
     </g>
     <g id="text_2">
      <!-- −1 -->
      <g style="fill: #555555" transform="translate(132.594101 332.318437) scale(0.1 -0.1)">
       <defs>
        <path id="DejaVuSans-31" d="M 794 531 
L 1825 531 
L 1825 4091 
L 703 3866 
L 703 4441 
L 1819 4666 
L 2450 4666 
L 2450 531 
L 3481 531 
L 3481 0 
L 794 0 
L 794 531 
z
" transform="scale(0.015625)"/>
       </defs>
       <use xlink:href="#DejaVuSans-2212"/>
       <use xlink:href="#DejaVuSans-31" x="83.789062"/>
      </g>
     </g>
    </g>
    <g id="xtick_3">
     <g id="line2d_5">
      <path d="M 210.628398 317.72 
L 210.628398 38.952 
" clip-path="url(#pf760a278bb)" style="fill: none; stroke: #ffffff; stroke-width: 0.8; stroke-linecap: square"/>
     </g>
     <g id="line2d_6">
      <g>
       <use xlink:href="#m26f3a18159" x="210.628398" y="317.72" style="fill: #555555; stroke: #555555; stroke-width: 0.8"/>
      </g>
     </g>
     <g id="text_3">
      <!-- 0 -->
      <g style="fill: #555555" transform="translate(207.447148 332.318437) scale(0.1 -0.1)">
       <defs>
        <path id="DejaVuSans-30" d="M 2034 4250 
Q 1547 4250 1301 3770 
Q 1056 3291 1056 2328 
Q 1056 1369 1301 889 
Q 1547 409 2034 409 
Q 2525 409 2770 889 
Q 3016 1369 3016 2328 
Q 3016 3291 2770 3770 
Q 2525 4250 2034 4250 
z
M 2034 4750 
Q 2819 4750 3233 4129 
Q 3647 3509 3647 2328 
Q 3647 1150 3233 529 
Q 2819 -91 2034 -91 
Q 1250 -91 836 529 
Q 422 1150 422 2328 
Q 422 3509 836 4129 
Q 1250 4750 2034 4750 
z
" transform="scale(0.015625)"/>
       </defs>
       <use xlink:href="#DejaVuSans-30"/>
      </g>
     </g>
    </g>
    <g id="xtick_4">
     <g id="line2d_7">
      <path d="M 281.291602 317.72 
L 281.291602 38.952 
" clip-path="url(#pf760a278bb)" style="fill: none; stroke: #ffffff; stroke-width: 0.8; stroke-linecap: square"/>
     </g>
     <g id="line2d_8">
      <g>
       <use xlink:href="#m26f3a18159" x="281.291602" y="317.72" style="fill: #555555; stroke: #555555; stroke-width: 0.8"/>
      </g>
     </g>
     <g id="text_4">
      <!-- 1 -->
      <g style="fill: #555555" transform="translate(278.110352 332.318437) scale(0.1 -0.1)">
       <use xlink:href="#DejaVuSans-31"/>
      </g>
     </g>
    </g>
    <g id="xtick_5">
     <g id="line2d_9">
      <path d="M 351.954805 317.72 
L 351.954805 38.952 
" clip-path="url(#pf760a278bb)" style="fill: none; stroke: #ffffff; stroke-width: 0.8; stroke-linecap: square"/>
     </g>
     <g id="line2d_10">
      <g>
       <use xlink:href="#m26f3a18159" x="351.954805" y="317.72" style="fill: #555555; stroke: #555555; stroke-width: 0.8"/>
      </g>
     </g>
     <g id="text_5">
      <!-- 2 -->
      <g style="fill: #555555" transform="translate(348.773555 332.318437) scale(0.1 -0.1)">
       <use xlink:href="#DejaVuSans-32"/>
      </g>
     </g>
    </g>
    <g id="xtick_6">
     <g id="line2d_11">
      <path d="M 422.618009 317.72 
L 422.618009 38.952 
" clip-path="url(#pf760a278bb)" style="fill: none; stroke: #ffffff; stroke-width: 0.8; stroke-linecap: square"/>
     </g>
     <g id="line2d_12">
      <g>
       <use xlink:href="#m26f3a18159" x="422.618009" y="317.72" style="fill: #555555; stroke: #555555; stroke-width: 0.8"/>
      </g>
     </g>
     <g id="text_6">
      <!-- 3 -->
      <g style="fill: #555555" transform="translate(419.436759 332.318437) scale(0.1 -0.1)">
       <defs>
        <path id="DejaVuSans-33" d="M 2597 2516 
Q 3050 2419 3304 2112 
Q 3559 1806 3559 1356 
Q 3559 666 3084 287 
Q 2609 -91 1734 -91 
Q 1441 -91 1130 -33 
Q 819 25 488 141 
L 488 750 
Q 750 597 1062 519 
Q 1375 441 1716 441 
Q 2309 441 2620 675 
Q 2931 909 2931 1356 
Q 2931 1769 2642 2001 
Q 2353 2234 1838 2234 
L 1294 2234 
L 1294 2753 
L 1863 2753 
Q 2328 2753 2575 2939 
Q 2822 3125 2822 3475 
Q 2822 3834 2567 4026 
Q 2313 4219 1838 4219 
Q 1578 4219 1281 4162 
Q 984 4106 628 3988 
L 628 4550 
Q 988 4650 1302 4700 
Q 1616 4750 1894 4750 
Q 2613 4750 3031 4423 
Q 3450 4097 3450 3541 
Q 3450 3153 3228 2886 
Q 3006 2619 2597 2516 
z
" transform="scale(0.015625)"/>
       </defs>
       <use xlink:href="#DejaVuSans-33"/>
      </g>
     </g>
    </g>
   </g>
   <g id="matplotlib.axis_2">
    <g id="ytick_1">
     <g id="line2d_13">
      <path d="M 41.92 312.220138 
L 450 312.220138 
" clip-path="url(#pf760a278bb)" style="fill: none; stroke: #ffffff; stroke-width: 0.8; stroke-linecap: square"/>
     </g>
     <g id="line2d_14">
      <defs>
       <path id="m1598badd12" d="M 0 0 
L -3.5 0 
" style="stroke: #555555; stroke-width: 0.8"/>
      </defs>
      <g>
       <use xlink:href="#m1598badd12" x="41.92" y="312.220138" style="fill: #555555; stroke: #555555; stroke-width: 0.8"/>
      </g>
     </g>
     <g id="text_7">
      <!-- −2.5 -->
      <g style="fill: #555555" transform="translate(10.637187 316.019356) scale(0.1 -0.1)">
       <defs>
        <path id="DejaVuSans-2e" d="M 684 794 
L 1344 794 
L 1344 0 
L 684 0 
L 684 794 
z
" transform="scale(0.015625)"/>
        <path id="DejaVuSans-35" d="M 691 4666 
L 3169 4666 
L 3169 4134 
L 1269 4134 
L 1269 2991 
Q 1406 3038 1543 3061 
Q 1681 3084 1819 3084 
Q 2600 3084 3056 2656 
Q 3513 2228 3513 1497 
Q 3513 744 3044 326 
Q 2575 -91 1722 -91 
Q 1428 -91 1123 -41 
Q 819 9 494 109 
L 494 744 
Q 775 591 1075 516 
Q 1375 441 1709 441 
Q 2250 441 2565 725 
Q 2881 1009 2881 1497 
Q 2881 1984 2565 2268 
Q 2250 2553 1709 2553 
Q 1456 2553 1204 2497 
Q 953 2441 691 2322 
L 691 4666 
z
" transform="scale(0.015625)"/>
       </defs>
       <use xlink:href="#DejaVuSans-2212"/>
       <use xlink:href="#DejaVuSans-32" x="83.789062"/>
       <use xlink:href="#DejaVuSans-2e" x="147.412109"/>
       <use xlink:href="#DejaVuSans-35" x="179.199219"/>
      </g>
     </g>
    </g>
    <g id="ytick_2">
     <g id="line2d_15">
      <path d="M 41.92 276.441319 
L 450 276.441319 
" clip-path="url(#pf760a278bb)" style="fill: none; stroke: #ffffff; stroke-width: 0.8; stroke-linecap: square"/>
     </g>
     <g id="line2d_16">
      <g>
       <use xlink:href="#m1598badd12" x="41.92" y="276.441319" style="fill: #555555; stroke: #555555; stroke-width: 0.8"/>
      </g>
     </g>
     <g id="text_8">
      <!-- 0.0 -->
      <g style="fill: #555555" transform="translate(19.016875 280.240538) scale(0.1 -0.1)">
       <use xlink:href="#DejaVuSans-30"/>
       <use xlink:href="#DejaVuSans-2e" x="63.623047"/>
       <use xlink:href="#DejaVuSans-30" x="95.410156"/>
      </g>
     </g>
    </g>
    <g id="ytick_3">
     <g id="line2d_17">
      <path d="M 41.92 240.6625 
L 450 240.6625 
" clip-path="url(#pf760a278bb)" style="fill: none; stroke: #ffffff; stroke-width: 0.8; stroke-linecap: square"/>
     </g>
     <g id="line2d_18">
      <g>
       <use xlink:href="#m1598badd12" x="41.92" y="240.6625" style="fill: #555555; stroke: #555555; stroke-width: 0.8"/>
      </g>
     </g>
     <g id="text_9">
      <!-- 2.5 -->
      <g style="fill: #555555" transform="translate(19.016875 244.461719) scale(0.1 -0.1)">
       <use xlink:href="#DejaVuSans-32"/>
       <use xlink:href="#DejaVuSans-2e" x="63.623047"/>
       <use xlink:href="#DejaVuSans-35" x="95.410156"/>
      </g>
     </g>
    </g>
    <g id="ytick_4">
     <g id="line2d_19">
      <path d="M 41.92 204.883682 
L 450 204.883682 
" clip-path="url(#pf760a278bb)" style="fill: none; stroke: #ffffff; stroke-width: 0.8; stroke-linecap: square"/>
     </g>
     <g id="line2d_20">
      <g>
       <use xlink:href="#m1598badd12" x="41.92" y="204.883682" style="fill: #555555; stroke: #555555; stroke-width: 0.8"/>
      </g>
     </g>
     <g id="text_10">
      <!-- 5.0 -->
      <g style="fill: #555555" transform="translate(19.016875 208.682901) scale(0.1 -0.1)">
       <use xlink:href="#DejaVuSans-35"/>
       <use xlink:href="#DejaVuSans-2e" x="63.623047"/>
       <use xlink:href="#DejaVuSans-30" x="95.410156"/>
      </g>
     </g>
    </g>
    <g id="ytick_5">
     <g id="line2d_21">
      <path d="M 41.92 169.104863 
L 450 169.104863 
" clip-path="url(#pf760a278bb)" style="fill: none; stroke: #ffffff; stroke-width: 0.8; stroke-linecap: square"/>
     </g>
     <g id="line2d_22">
      <g>
       <use xlink:href="#m1598badd12" x="41.92" y="169.104863" style="fill: #555555; stroke: #555555; stroke-width: 0.8"/>
      </g>
     </g>
     <g id="text_11">
      <!-- 7.5 -->
      <g style="fill: #555555" transform="translate(19.016875 172.904082) scale(0.1 -0.1)">
       <defs>
        <path id="DejaVuSans-37" d="M 525 4666 
L 3525 4666 
L 3525 4397 
L 1831 0 
L 1172 0 
L 2766 4134 
L 525 4134 
L 525 4666 
z
" transform="scale(0.015625)"/>
       </defs>
       <use xlink:href="#DejaVuSans-37"/>
       <use xlink:href="#DejaVuSans-2e" x="63.623047"/>
       <use xlink:href="#DejaVuSans-35" x="95.410156"/>
      </g>
     </g>
    </g>
    <g id="ytick_6">
     <g id="line2d_23">
      <path d="M 41.92 133.326045 
L 450 133.326045 
" clip-path="url(#pf760a278bb)" style="fill: none; stroke: #ffffff; stroke-width: 0.8; stroke-linecap: square"/>
     </g>
     <g id="line2d_24">
      <g>
       <use xlink:href="#m1598badd12" x="41.92" y="133.326045" style="fill: #555555; stroke: #555555; stroke-width: 0.8"/>
      </g>
     </g>
     <g id="text_12">
      <!-- 10.0 -->
      <g style="fill: #555555" transform="translate(12.654375 137.125263) scale(0.1 -0.1)">
       <use xlink:href="#DejaVuSans-31"/>
       <use xlink:href="#DejaVuSans-30" x="63.623047"/>
       <use xlink:href="#DejaVuSans-2e" x="127.246094"/>
       <use xlink:href="#DejaVuSans-30" x="159.033203"/>
      </g>
     </g>
    </g>
    <g id="ytick_7">
     <g id="line2d_25">
      <path d="M 41.92 97.547226 
L 450 97.547226 
" clip-path="url(#pf760a278bb)" style="fill: none; stroke: #ffffff; stroke-width: 0.8; stroke-linecap: square"/>
     </g>
     <g id="line2d_26">
      <g>
       <use xlink:href="#m1598badd12" x="41.92" y="97.547226" style="fill: #555555; stroke: #555555; stroke-width: 0.8"/>
      </g>
     </g>
     <g id="text_13">
      <!-- 12.5 -->
      <g style="fill: #555555" transform="translate(12.654375 101.346445) scale(0.1 -0.1)">
       <use xlink:href="#DejaVuSans-31"/>
       <use xlink:href="#DejaVuSans-32" x="63.623047"/>
       <use xlink:href="#DejaVuSans-2e" x="127.246094"/>
       <use xlink:href="#DejaVuSans-35" x="159.033203"/>
      </g>
     </g>
    </g>
    <g id="ytick_8">
     <g id="line2d_27">
      <path d="M 41.92 61.768407 
L 450 61.768407 
" clip-path="url(#pf760a278bb)" style="fill: none; stroke: #ffffff; stroke-width: 0.8; stroke-linecap: square"/>
     </g>
     <g id="line2d_28">
      <g>
       <use xlink:href="#m1598badd12" x="41.92" y="61.768407" style="fill: #555555; stroke: #555555; stroke-width: 0.8"/>
      </g>
     </g>
     <g id="text_14">
      <!-- 15.0 -->
      <g style="fill: #555555" transform="translate(12.654375 65.567626) scale(0.1 -0.1)">
       <use xlink:href="#DejaVuSans-31"/>
       <use xlink:href="#DejaVuSans-35" x="63.623047"/>
       <use xlink:href="#DejaVuSans-2e" x="127.246094"/>
       <use xlink:href="#DejaVuSans-30" x="159.033203"/>
      </g>
     </g>
    </g>
   </g>
   <g id="PolyCollection_1">
    <defs>
     <path id="mc75ed95a92" d="M 69.301991 -69.158681 
L 69.301991 -283.831593 
L 72.907257 -284.386678 
L 76.512522 -284.774121 
L 80.117788 -284.99392 
L 83.723053 -285.046076 
L 87.328319 -284.930588 
L 90.933584 -284.647457 
L 94.53885 -284.196683 
L 98.144115 -283.578265 
L 101.749381 -282.792204 
L 105.354646 -281.838499 
L 108.959912 -280.717152 
L 112.565177 -279.42816 
L 116.170443 -277.971526 
L 119.775708 -276.347248 
L 123.380974 -274.555327 
L 126.986239 -272.595762 
L 130.591505 -270.468554 
L 134.19677 -268.173703 
L 137.802036 -265.711208 
L 141.407301 -263.08107 
L 145.012566 -260.283289 
L 148.617832 -257.317864 
L 152.223097 -254.184796 
L 155.828363 -250.884084 
L 159.433628 -247.415729 
L 163.038894 -243.779731 
L 166.644159 -239.976089 
L 170.249425 -236.004804 
L 173.85469 -231.865876 
L 177.459956 -227.559305 
L 181.065221 -223.085089 
L 184.670487 -218.443231 
L 188.275752 -213.633729 
L 191.881018 -208.656584 
L 195.486283 -203.511796 
L 199.091549 -198.199364 
L 202.696814 -192.719289 
L 206.30208 -187.07157 
L 209.907345 -181.256208 
L 213.512611 -175.273203 
L 217.117876 -169.122554 
L 220.723142 -162.804262 
L 224.328407 -156.318327 
L 227.933673 -149.664748 
L 231.538938 -142.843526 
L 235.144204 -135.854661 
L 238.749469 -128.698152 
L 242.354735 -121.374 
L 245.96 -113.882204 
L 245.96 -69.158681 
L 245.96 -69.158681 
L 242.354735 -69.158681 
L 238.749469 -69.158681 
L 235.144204 -69.158681 
L 231.538938 -69.158681 
L 227.933673 -69.158681 
L 224.328407 -69.158681 
L 220.723142 -69.158681 
L 217.117876 -69.158681 
L 213.512611 -69.158681 
L 209.907345 -69.158681 
L 206.30208 -69.158681 
L 202.696814 -69.158681 
L 199.091549 -69.158681 
L 195.486283 -69.158681 
L 191.881018 -69.158681 
L 188.275752 -69.158681 
L 184.670487 -69.158681 
L 181.065221 -69.158681 
L 177.459956 -69.158681 
L 173.85469 -69.158681 
L 170.249425 -69.158681 
L 166.644159 -69.158681 
L 163.038894 -69.158681 
L 159.433628 -69.158681 
L 155.828363 -69.158681 
L 152.223097 -69.158681 
L 148.617832 -69.158681 
L 145.012566 -69.158681 
L 141.407301 -69.158681 
L 137.802036 -69.158681 
L 134.19677 -69.158681 
L 130.591505 -69.158681 
L 126.986239 -69.158681 
L 123.380974 -69.158681 
L 119.775708 -69.158681 
L 116.170443 -69.158681 
L 112.565177 -69.158681 
L 108.959912 -69.158681 
L 105.354646 -69.158681 
L 101.749381 -69.158681 
L 98.144115 -69.158681 
L 94.53885 -69.158681 
L 90.933584 -69.158681 
L 87.328319 -69.158681 
L 83.723053 -69.158681 
L 80.117788 -69.158681 
L 76.512522 -69.158681 
L 72.907257 -69.158681 
L 69.301991 -69.158681 
z
" style="stroke: #e24a33; stroke-width: 0.5"/>
    </defs>
    <g clip-path="url(#pf760a278bb)">
     <use xlink:href="#mc75ed95a92" x="0" y="345.6" style="fill: #e24a33; stroke: #e24a33; stroke-width: 0.5"/>
    </g>
   </g>
   <g id="PolyCollection_2">
    <defs>
     <path id="mdbce8a285b" d="M 245.96 -69.158681 
L 245.96 -113.882204 
L 249.565265 -106.502171 
L 253.170531 -99.513305 
L 256.775796 -92.915608 
L 260.381062 -86.709078 
L 263.986327 -80.893716 
L 267.591593 -75.469522 
L 271.196858 -70.436496 
L 274.802124 -65.794637 
L 278.407389 -61.543947 
L 282.012655 -57.684424 
L 285.61792 -54.216069 
L 289.223186 -51.138882 
L 292.828451 -48.452863 
L 296.433717 -46.158012 
L 300.038982 -44.254328 
L 303.644248 -42.741813 
L 307.249513 -41.620465 
L 310.854779 -40.890285 
L 314.460044 -40.551273 
L 318.06531 -40.603428 
L 321.670575 -41.046752 
L 325.275841 -41.881243 
L 328.881106 -43.106903 
L 332.486372 -44.72373 
L 336.091637 -46.731725 
L 339.696903 -49.130887 
L 343.302168 -51.921218 
L 346.907434 -55.102716 
L 350.512699 -58.675383 
L 354.117964 -62.639217 
L 357.72323 -66.994219 
L 361.328495 -71.740389 
L 364.933761 -76.877726 
L 368.539026 -82.406232 
L 372.144292 -88.325905 
L 375.749557 -94.636746 
L 379.354823 -101.338755 
L 382.960088 -108.431932 
L 386.565354 -115.916277 
L 390.170619 -123.79179 
L 393.775885 -132.05847 
L 397.38115 -140.716318 
L 400.986416 -149.765334 
L 404.591681 -159.205518 
L 408.196947 -169.03687 
L 411.802212 -179.25939 
L 415.407478 -189.873077 
L 419.012743 -200.877932 
L 422.618009 -212.273955 
L 422.618009 -69.158681 
L 422.618009 -69.158681 
L 419.012743 -69.158681 
L 415.407478 -69.158681 
L 411.802212 -69.158681 
L 408.196947 -69.158681 
L 404.591681 -69.158681 
L 400.986416 -69.158681 
L 397.38115 -69.158681 
L 393.775885 -69.158681 
L 390.170619 -69.158681 
L 386.565354 -69.158681 
L 382.960088 -69.158681 
L 379.354823 -69.158681 
L 375.749557 -69.158681 
L 372.144292 -69.158681 
L 368.539026 -69.158681 
L 364.933761 -69.158681 
L 361.328495 -69.158681 
L 357.72323 -69.158681 
L 354.117964 -69.158681 
L 350.512699 -69.158681 
L 346.907434 -69.158681 
L 343.302168 -69.158681 
L 339.696903 -69.158681 
L 336.091637 -69.158681 
L 332.486372 -69.158681 
L 328.881106 -69.158681 
L 325.275841 -69.158681 
L 321.670575 -69.158681 
L 318.06531 -69.158681 
L 314.460044 -69.158681 
L 310.854779 -69.158681 
L 307.249513 -69.158681 
L 303.644248 -69.158681 
L 300.038982 -69.158681 
L 296.433717 -69.158681 
L 292.828451 -69.158681 
L 289.223186 -69.158681 
L 285.61792 -69.158681 
L 282.012655 -69.158681 
L 278.407389 -69.158681 
L 274.802124 -69.158681 
L 271.196858 -69.158681 
L 267.591593 -69.158681 
L 263.986327 -69.158681 
L 260.381062 -69.158681 
L 256.775796 -69.158681 
L 253.170531 -69.158681 
L 249.565265 -69.158681 
L 245.96 -69.158681 
z
" style="stroke: #e24a33; stroke-width: 0.5"/>
    </defs>
    <g clip-path="url(#pf760a278bb)">
     <use xlink:href="#mdbce8a285b" x="0" y="345.6" style="fill: #e24a33; stroke: #e24a33; stroke-width: 0.5"/>
    </g>
   </g>
   <g id="line2d_29">
    <path d="M 60.469091 70.293829 
L 64.197551 66.357113 
L 67.926012 62.915789 
L 71.654472 59.957243 
L 75.382933 57.468862 
L 79.111393 55.438031 
L 82.839854 53.852137 
L 86.568314 52.698566 
L 90.296775 51.964704 
L 94.025235 51.637937 
L 97.753696 51.705652 
L 101.482156 52.155235 
L 105.210617 52.974071 
L 108.939077 54.149548 
L 112.667538 55.669051 
L 116.395998 57.519966 
L 120.124459 59.689681 
L 123.852919 62.16558 
L 127.58138 64.935051 
L 131.30984 67.985478 
L 135.038301 71.30425 
L 138.766761 74.878751 
L 142.495222 78.696368 
L 146.223682 82.744487 
L 151.816373 89.221265 
L 157.409063 96.14572 
L 163.001754 103.475281 
L 168.594445 111.167375 
L 174.187136 119.179433 
L 181.644057 130.286315 
L 189.100978 141.785426 
L 198.422129 156.557156 
L 217.064431 186.677811 
L 230.114043 207.532199 
L 239.435194 221.965309 
L 246.892115 233.082702 
L 252.484806 241.10422 
L 258.077497 248.807127 
L 263.670187 256.14885 
L 269.262878 263.08682 
L 274.855569 269.578464 
L 278.584029 273.637245 
L 282.31249 277.466125 
L 286.04095 281.052489 
L 289.769411 284.383724 
L 293.497871 287.447216 
L 297.226332 290.230351 
L 300.954792 292.720516 
L 304.683253 294.905097 
L 308.411713 296.771479 
L 312.140174 298.30705 
L 315.868634 299.499195 
L 319.597095 300.3353 
L 323.325555 300.802752 
L 327.054016 300.888938 
L 330.782476 300.581242 
L 334.510937 299.867051 
L 338.239397 298.733752 
L 341.967857 297.168731 
L 345.696318 295.159373 
L 349.424778 292.693066 
L 353.153239 289.757195 
L 356.881699 286.339147 
L 360.61016 282.426307 
L 364.33862 278.006062 
L 368.067081 273.065799 
L 371.795541 267.592902 
L 375.524002 261.574759 
L 379.252462 254.998756 
L 382.980923 247.852279 
L 386.709383 240.122714 
L 390.437844 231.797447 
L 394.166304 222.863865 
L 397.894765 213.309354 
L 401.623225 203.121299 
L 405.351686 192.287088 
L 409.080146 180.794106 
L 412.808607 168.629739 
L 416.537067 155.781374 
L 420.265528 142.236397 
L 423.993988 127.982194 
L 427.722449 113.006152 
L 431.450909 97.295656 
L 431.450909 97.295656 
" clip-path="url(#pf760a278bb)" style="fill: none; stroke: #000000; stroke-width: 1.5; stroke-linecap: square"/>
   </g>
   <g id="line2d_30">
    <defs>
     <path id="m35abf3b682" d="M 0 1.5 
C 0.397805 1.5 0.77937 1.341951 1.06066 1.06066 
C 1.341951 0.77937 1.5 0.397805 1.5 0 
C 1.5 -0.397805 1.341951 -0.77937 1.06066 -1.06066 
C 0.77937 -1.341951 0.397805 -1.5 0 -1.5 
C -0.397805 -1.5 -0.77937 -1.341951 -1.06066 -1.06066 
C -1.341951 -0.77937 -1.5 -0.397805 -1.5 0 
C -1.5 0.397805 -1.341951 0.77937 -1.06066 1.06066 
C -0.77937 1.341951 -0.397805 1.5 0 1.5 
z
" style="stroke: #000000"/>
    </defs>
    <g clip-path="url(#pf760a278bb)">
     <use xlink:href="#m35abf3b682" x="69.301991" y="61.768407" style="stroke: #000000"/>
     <use xlink:href="#m35abf3b682" x="157.630996" y="96.429138" style="stroke: #000000"/>
     <use xlink:href="#m35abf3b682" x="245.96" y="231.717796" style="stroke: #000000"/>
     <use xlink:href="#m35abf3b682" x="334.289004" y="299.921169" style="stroke: #000000"/>
     <use xlink:href="#m35abf3b682" x="422.618009" y="133.326045" style="stroke: #000000"/>
    </g>
   </g>
   <g id="LineCollection_1">
    <path d="M 69.301991 276.441319 
L 69.301991 61.768407 
" clip-path="url(#pf760a278bb)" style="fill: none; stroke: #000000; stroke-width: 0.5"/>
    <path d="M 157.630996 276.441319 
L 157.630996 96.429138 
" clip-path="url(#pf760a278bb)" style="fill: none; stroke: #000000; stroke-width: 0.5"/>
    <path d="M 245.96 276.441319 
L 245.96 231.717796 
" clip-path="url(#pf760a278bb)" style="fill: none; stroke: #000000; stroke-width: 0.5"/>
    <path d="M 334.289004 276.441319 
L 334.289004 299.921169 
" clip-path="url(#pf760a278bb)" style="fill: none; stroke: #000000; stroke-width: 0.5"/>
    <path d="M 422.618009 276.441319 
L 422.618009 133.326045 
" clip-path="url(#pf760a278bb)" style="fill: none; stroke: #000000; stroke-width: 0.5"/>
   </g>
   <g id="LineCollection_2">
    <path d="M 69.301991 276.441319 
L 422.618009 276.441319 
" clip-path="url(#pf760a278bb)" style="fill: none; stroke: #000000; stroke-width: 0.5"/>
   </g>
   <g id="line2d_31">
    <path d="M 69.301991 61.768407 
L 72.907257 61.213322 
L 76.512522 60.825879 
L 80.117788 60.60608 
L 83.723053 60.553924 
L 87.328319 60.669412 
L 90.933584 60.952543 
L 94.53885 61.403317 
L 98.144115 62.021735 
L 101.749381 62.807796 
L 105.354646 63.761501 
L 108.959912 64.882848 
L 112.565177 66.17184 
L 116.170443 67.628474 
L 119.775708 69.252752 
L 123.380974 71.044673 
L 126.986239 73.004238 
L 130.591505 75.131446 
L 134.19677 77.426297 
L 137.802036 79.888792 
L 141.407301 82.51893 
L 145.012566 85.316711 
L 148.617832 88.282136 
L 152.223097 91.415204 
L 155.828363 94.715916 
L 159.433628 98.184271 
L 163.038894 101.820269 
L 166.644159 105.623911 
L 170.249425 109.595196 
L 173.85469 113.734124 
L 177.459956 118.040695 
L 181.065221 122.514911 
L 184.670487 127.156769 
L 188.275752 131.966271 
L 191.881018 136.943416 
L 195.486283 142.088204 
L 199.091549 147.400636 
L 202.696814 152.880711 
L 206.30208 158.52843 
L 209.907345 164.343792 
L 213.512611 170.326797 
L 217.117876 176.477446 
L 220.723142 182.795738 
L 224.328407 189.281673 
L 227.933673 195.935252 
L 231.538938 202.756474 
L 235.144204 209.745339 
L 238.749469 216.901848 
L 242.354735 224.226 
L 245.96 231.717796 
" clip-path="url(#pf760a278bb)" style="fill: none; stroke: #000000; stroke-width: 0.5; stroke-linecap: square"/>
   </g>
   <g id="line2d_32">
    <path d="M 245.96 231.717796 
L 249.565265 239.097829 
L 253.170531 246.086695 
L 256.775796 252.684392 
L 260.381062 258.890922 
L 263.986327 264.706284 
L 267.591593 270.130478 
L 271.196858 275.163504 
L 274.802124 279.805363 
L 278.407389 284.056053 
L 282.012655 287.915576 
L 285.61792 291.383931 
L 289.223186 294.461118 
L 292.828451 297.147137 
L 296.433717 299.441988 
L 300.038982 301.345672 
L 303.644248 302.858187 
L 307.249513 303.979535 
L 310.854779 304.709715 
L 314.460044 305.048727 
L 318.06531 304.996572 
L 321.670575 304.553248 
L 325.275841 303.718757 
L 328.881106 302.493097 
L 332.486372 300.87627 
L 336.091637 298.868275 
L 339.696903 296.469113 
L 343.302168 293.678782 
L 346.907434 290.497284 
L 350.512699 286.924617 
L 354.117964 282.960783 
L 357.72323 278.605781 
L 361.328495 273.859611 
L 364.933761 268.722274 
L 368.539026 263.193768 
L 372.144292 257.274095 
L 375.749557 250.963254 
L 379.354823 244.261245 
L 382.960088 237.168068 
L 386.565354 229.683723 
L 390.170619 221.80821 
L 393.775885 213.54153 
L 397.38115 204.883682 
L 400.986416 195.834666 
L 404.591681 186.394482 
L 408.196947 176.56313 
L 411.802212 166.34061 
L 415.407478 155.726923 
L 419.012743 144.722068 
L 422.618009 133.326045 
" clip-path="url(#pf760a278bb)" style="fill: none; stroke: #000000; stroke-width: 0.5; stroke-linecap: square"/>
   </g>
   <g id="patch_3">
    <path d="M 41.92 317.72 
L 41.92 38.952 
" style="fill: none; stroke: #ffffff; stroke-linejoin: miter; stroke-linecap: square"/>
   </g>
   <g id="patch_4">
    <path d="M 450 317.72 
L 450 38.952 
" style="fill: none; stroke: #ffffff; stroke-linejoin: miter; stroke-linecap: square"/>
   </g>
   <g id="patch_5">
    <path d="M 41.92 317.72 
L 450 317.72 
" style="fill: none; stroke: #ffffff; stroke-linejoin: miter; stroke-linecap: square"/>
   </g>
   <g id="patch_6">
    <path d="M 41.92 38.952 
L 450 38.952 
" style="fill: none; stroke: #ffffff; stroke-linejoin: miter; stroke-linecap: square"/>
   </g>
  </g>
  <g id="text_15">
   <!-- Quadrature approximation of $x^{3} - 8 x + 7$ -->
   <g transform="translate(108.18 17.832) scale(0.12 -0.12)">
    <defs>
     <path id="DejaVuSans-51" d="M 2522 4238 
Q 1834 4238 1429 3725 
Q 1025 3213 1025 2328 
Q 1025 1447 1429 934 
Q 1834 422 2522 422 
Q 3209 422 3611 934 
Q 4013 1447 4013 2328 
Q 4013 3213 3611 3725 
Q 3209 4238 2522 4238 
z
M 3406 84 
L 4238 -825 
L 3475 -825 
L 2784 -78 
Q 2681 -84 2626 -87 
Q 2572 -91 2522 -91 
Q 1538 -91 948 567 
Q 359 1225 359 2328 
Q 359 3434 948 4092 
Q 1538 4750 2522 4750 
Q 3503 4750 4090 4092 
Q 4678 3434 4678 2328 
Q 4678 1516 4351 937 
Q 4025 359 3406 84 
z
" transform="scale(0.015625)"/>
     <path id="DejaVuSans-75" d="M 544 1381 
L 544 3500 
L 1119 3500 
L 1119 1403 
Q 1119 906 1312 657 
Q 1506 409 1894 409 
Q 2359 409 2629 706 
Q 2900 1003 2900 1516 
L 2900 3500 
L 3475 3500 
L 3475 0 
L 2900 0 
L 2900 538 
Q 2691 219 2414 64 
Q 2138 -91 1772 -91 
Q 1169 -91 856 284 
Q 544 659 544 1381 
z
M 1991 3584 
L 1991 3584 
z
" transform="scale(0.015625)"/>
     <path id="DejaVuSans-61" d="M 2194 1759 
Q 1497 1759 1228 1600 
Q 959 1441 959 1056 
Q 959 750 1161 570 
Q 1363 391 1709 391 
Q 2188 391 2477 730 
Q 2766 1069 2766 1631 
L 2766 1759 
L 2194 1759 
z
M 3341 1997 
L 3341 0 
L 2766 0 
L 2766 531 
Q 2569 213 2275 61 
Q 1981 -91 1556 -91 
Q 1019 -91 701 211 
Q 384 513 384 1019 
Q 384 1609 779 1909 
Q 1175 2209 1959 2209 
L 2766 2209 
L 2766 2266 
Q 2766 2663 2505 2880 
Q 2244 3097 1772 3097 
Q 1472 3097 1187 3025 
Q 903 2953 641 2809 
L 641 3341 
Q 956 3463 1253 3523 
Q 1550 3584 1831 3584 
Q 2591 3584 2966 3190 
Q 3341 2797 3341 1997 
z
" transform="scale(0.015625)"/>
     <path id="DejaVuSans-64" d="M 2906 2969 
L 2906 4863 
L 3481 4863 
L 3481 0 
L 2906 0 
L 2906 525 
Q 2725 213 2448 61 
Q 2172 -91 1784 -91 
Q 1150 -91 751 415 
Q 353 922 353 1747 
Q 353 2572 751 3078 
Q 1150 3584 1784 3584 
Q 2172 3584 2448 3432 
Q 2725 3281 2906 2969 
z
M 947 1747 
Q 947 1113 1208 752 
Q 1469 391 1925 391 
Q 2381 391 2643 752 
Q 2906 1113 2906 1747 
Q 2906 2381 2643 2742 
Q 2381 3103 1925 3103 
Q 1469 3103 1208 2742 
Q 947 2381 947 1747 
z
" transform="scale(0.015625)"/>
     <path id="DejaVuSans-72" d="M 2631 2963 
Q 2534 3019 2420 3045 
Q 2306 3072 2169 3072 
Q 1681 3072 1420 2755 
Q 1159 2438 1159 1844 
L 1159 0 
L 581 0 
L 581 3500 
L 1159 3500 
L 1159 2956 
Q 1341 3275 1631 3429 
Q 1922 3584 2338 3584 
Q 2397 3584 2469 3576 
Q 2541 3569 2628 3553 
L 2631 2963 
z
" transform="scale(0.015625)"/>
     <path id="DejaVuSans-74" d="M 1172 4494 
L 1172 3500 
L 2356 3500 
L 2356 3053 
L 1172 3053 
L 1172 1153 
Q 1172 725 1289 603 
Q 1406 481 1766 481 
L 2356 481 
L 2356 0 
L 1766 0 
Q 1100 0 847 248 
Q 594 497 594 1153 
L 594 3053 
L 172 3053 
L 172 3500 
L 594 3500 
L 594 4494 
L 1172 4494 
z
" transform="scale(0.015625)"/>
     <path id="DejaVuSans-65" d="M 3597 1894 
L 3597 1613 
L 953 1613 
Q 991 1019 1311 708 
Q 1631 397 2203 397 
Q 2534 397 2845 478 
Q 3156 559 3463 722 
L 3463 178 
Q 3153 47 2828 -22 
Q 2503 -91 2169 -91 
Q 1331 -91 842 396 
Q 353 884 353 1716 
Q 353 2575 817 3079 
Q 1281 3584 2069 3584 
Q 2775 3584 3186 3129 
Q 3597 2675 3597 1894 
z
M 3022 2063 
Q 3016 2534 2758 2815 
Q 2500 3097 2075 3097 
Q 1594 3097 1305 2825 
Q 1016 2553 972 2059 
L 3022 2063 
z
" transform="scale(0.015625)"/>
     <path id="DejaVuSans-20" transform="scale(0.015625)"/>
     <path id="DejaVuSans-70" d="M 1159 525 
L 1159 -1331 
L 581 -1331 
L 581 3500 
L 1159 3500 
L 1159 2969 
Q 1341 3281 1617 3432 
Q 1894 3584 2278 3584 
Q 2916 3584 3314 3078 
Q 3713 2572 3713 1747 
Q 3713 922 3314 415 
Q 2916 -91 2278 -91 
Q 1894 -91 1617 61 
Q 1341 213 1159 525 
z
M 3116 1747 
Q 3116 2381 2855 2742 
Q 2594 3103 2138 3103 
Q 1681 3103 1420 2742 
Q 1159 2381 1159 1747 
Q 1159 1113 1420 752 
Q 1681 391 2138 391 
Q 2594 391 2855 752 
Q 3116 1113 3116 1747 
z
" transform="scale(0.015625)"/>
     <path id="DejaVuSans-6f" d="M 1959 3097 
Q 1497 3097 1228 2736 
Q 959 2375 959 1747 
Q 959 1119 1226 758 
Q 1494 397 1959 397 
Q 2419 397 2687 759 
Q 2956 1122 2956 1747 
Q 2956 2369 2687 2733 
Q 2419 3097 1959 3097 
z
M 1959 3584 
Q 2709 3584 3137 3096 
Q 3566 2609 3566 1747 
Q 3566 888 3137 398 
Q 2709 -91 1959 -91 
Q 1206 -91 779 398 
Q 353 888 353 1747 
Q 353 2609 779 3096 
Q 1206 3584 1959 3584 
z
" transform="scale(0.015625)"/>
     <path id="DejaVuSans-78" d="M 3513 3500 
L 2247 1797 
L 3578 0 
L 2900 0 
L 1881 1375 
L 863 0 
L 184 0 
L 1544 1831 
L 300 3500 
L 978 3500 
L 1906 2253 
L 2834 3500 
L 3513 3500 
z
" transform="scale(0.015625)"/>
     <path id="DejaVuSans-69" d="M 603 3500 
L 1178 3500 
L 1178 0 
L 603 0 
L 603 3500 
z
M 603 4863 
L 1178 4863 
L 1178 4134 
L 603 4134 
L 603 4863 
z
" transform="scale(0.015625)"/>
     <path id="DejaVuSans-6d" d="M 3328 2828 
Q 3544 3216 3844 3400 
Q 4144 3584 4550 3584 
Q 5097 3584 5394 3201 
Q 5691 2819 5691 2113 
L 5691 0 
L 5113 0 
L 5113 2094 
Q 5113 2597 4934 2840 
Q 4756 3084 4391 3084 
Q 3944 3084 3684 2787 
Q 3425 2491 3425 1978 
L 3425 0 
L 2847 0 
L 2847 2094 
Q 2847 2600 2669 2842 
Q 2491 3084 2119 3084 
Q 1678 3084 1418 2786 
Q 1159 2488 1159 1978 
L 1159 0 
L 581 0 
L 581 3500 
L 1159 3500 
L 1159 2956 
Q 1356 3278 1631 3431 
Q 1906 3584 2284 3584 
Q 2666 3584 2933 3390 
Q 3200 3197 3328 2828 
z
" transform="scale(0.015625)"/>
     <path id="DejaVuSans-6e" d="M 3513 2113 
L 3513 0 
L 2938 0 
L 2938 2094 
Q 2938 2591 2744 2837 
Q 2550 3084 2163 3084 
Q 1697 3084 1428 2787 
Q 1159 2491 1159 1978 
L 1159 0 
L 581 0 
L 581 3500 
L 1159 3500 
L 1159 2956 
Q 1366 3272 1645 3428 
Q 1925 3584 2291 3584 
Q 2894 3584 3203 3211 
Q 3513 2838 3513 2113 
z
" transform="scale(0.015625)"/>
     <path id="DejaVuSans-66" d="M 2375 4863 
L 2375 4384 
L 1825 4384 
Q 1516 4384 1395 4259 
Q 1275 4134 1275 3809 
L 1275 3500 
L 2222 3500 
L 2222 3053 
L 1275 3053 
L 1275 0 
L 697 0 
L 697 3053 
L 147 3053 
L 147 3500 
L 697 3500 
L 697 3744 
Q 697 4328 969 4595 
Q 1241 4863 1831 4863 
L 2375 4863 
z
" transform="scale(0.015625)"/>
     <path id="DejaVuSans-Oblique-78" d="M 3841 3500 
L 2234 1784 
L 3219 0 
L 2559 0 
L 1819 1388 
L 531 0 
L -166 0 
L 1556 1844 
L 641 3500 
L 1300 3500 
L 1972 2234 
L 3144 3500 
L 3841 3500 
z
" transform="scale(0.015625)"/>
     <path id="DejaVuSans-38" d="M 2034 2216 
Q 1584 2216 1326 1975 
Q 1069 1734 1069 1313 
Q 1069 891 1326 650 
Q 1584 409 2034 409 
Q 2484 409 2743 651 
Q 3003 894 3003 1313 
Q 3003 1734 2745 1975 
Q 2488 2216 2034 2216 
z
M 1403 2484 
Q 997 2584 770 2862 
Q 544 3141 544 3541 
Q 544 4100 942 4425 
Q 1341 4750 2034 4750 
Q 2731 4750 3128 4425 
Q 3525 4100 3525 3541 
Q 3525 3141 3298 2862 
Q 3072 2584 2669 2484 
Q 3125 2378 3379 2068 
Q 3634 1759 3634 1313 
Q 3634 634 3220 271 
Q 2806 -91 2034 -91 
Q 1263 -91 848 271 
Q 434 634 434 1313 
Q 434 1759 690 2068 
Q 947 2378 1403 2484 
z
M 1172 3481 
Q 1172 3119 1398 2916 
Q 1625 2713 2034 2713 
Q 2441 2713 2670 2916 
Q 2900 3119 2900 3481 
Q 2900 3844 2670 4047 
Q 2441 4250 2034 4250 
Q 1625 4250 1398 4047 
Q 1172 3844 1172 3481 
z
" transform="scale(0.015625)"/>
     <path id="DejaVuSans-2b" d="M 2944 4013 
L 2944 2272 
L 4684 2272 
L 4684 1741 
L 2944 1741 
L 2944 0 
L 2419 0 
L 2419 1741 
L 678 1741 
L 678 2272 
L 2419 2272 
L 2419 4013 
L 2944 4013 
z
" transform="scale(0.015625)"/>
    </defs>
    <use xlink:href="#DejaVuSans-51" transform="translate(0 0.765625)"/>
    <use xlink:href="#DejaVuSans-75" transform="translate(78.710938 0.765625)"/>
    <use xlink:href="#DejaVuSans-61" transform="translate(142.089844 0.765625)"/>
    <use xlink:href="#DejaVuSans-64" transform="translate(203.369141 0.765625)"/>
    <use xlink:href="#DejaVuSans-72" transform="translate(266.845703 0.765625)"/>
    <use xlink:href="#DejaVuSans-61" transform="translate(307.958984 0.765625)"/>
    <use xlink:href="#DejaVuSans-74" transform="translate(369.238281 0.765625)"/>
    <use xlink:href="#DejaVuSans-75" transform="translate(408.447266 0.765625)"/>
    <use xlink:href="#DejaVuSans-72" transform="translate(471.826172 0.765625)"/>
    <use xlink:href="#DejaVuSans-65" transform="translate(512.939453 0.765625)"/>
    <use xlink:href="#DejaVuSans-20" transform="translate(574.462891 0.765625)"/>
    <use xlink:href="#DejaVuSans-61" transform="translate(606.25 0.765625)"/>
    <use xlink:href="#DejaVuSans-70" transform="translate(667.529297 0.765625)"/>
    <use xlink:href="#DejaVuSans-70" transform="translate(731.005859 0.765625)"/>
    <use xlink:href="#DejaVuSans-72" transform="translate(794.482422 0.765625)"/>
    <use xlink:href="#DejaVuSans-6f" transform="translate(835.595703 0.765625)"/>
    <use xlink:href="#DejaVuSans-78" transform="translate(896.777344 0.765625)"/>
    <use xlink:href="#DejaVuSans-69" transform="translate(955.957031 0.765625)"/>
    <use xlink:href="#DejaVuSans-6d" transform="translate(983.740234 0.765625)"/>
    <use xlink:href="#DejaVuSans-61" transform="translate(1081.152344 0.765625)"/>
    <use xlink:href="#DejaVuSans-74" transform="translate(1142.431641 0.765625)"/>
    <use xlink:href="#DejaVuSans-69" transform="translate(1181.640625 0.765625)"/>
    <use xlink:href="#DejaVuSans-6f" transform="translate(1209.423828 0.765625)"/>
    <use xlink:href="#DejaVuSans-6e" transform="translate(1270.605469 0.765625)"/>
    <use xlink:href="#DejaVuSans-20" transform="translate(1333.984375 0.765625)"/>
    <use xlink:href="#DejaVuSans-6f" transform="translate(1365.771484 0.765625)"/>
    <use xlink:href="#DejaVuSans-66" transform="translate(1426.953125 0.765625)"/>
    <use xlink:href="#DejaVuSans-20" transform="translate(1462.158203 0.765625)"/>
    <use xlink:href="#DejaVuSans-Oblique-78" transform="translate(1493.945312 0.765625)"/>
    <use xlink:href="#DejaVuSans-33" transform="translate(1557.591146 39.046875) scale(0.7)"/>
    <use xlink:href="#DejaVuSans-2212" transform="translate(1624.344076 0.765625)"/>
    <use xlink:href="#DejaVuSans-38" transform="translate(1727.61556 0.765625)"/>
    <use xlink:href="#DejaVuSans-Oblique-78" transform="translate(1791.238607 0.765625)"/>
    <use xlink:href="#DejaVuSans-2b" transform="translate(1869.900716 0.765625)"/>
    <use xlink:href="#DejaVuSans-37" transform="translate(1973.172201 0.765625)"/>
   </g>
  </g>
 </g>
 <defs>
  <clipPath id="pf760a278bb">
   <rect x="41.92" y="38.952" width="408.08" height="278.768"/>
  </clipPath>
 </defs>
</svg>
